<svg xmlns="http://www.w3.org/2000/svg" width="17.544" height="17.544" viewBox="0 0 17.544 17.544">
  <path id="library_add_FILL0_wght400_GRAD0_opsz48" d="M89.43,187.009h1.316v-2.895H93.64V182.8H90.746V179.9H89.43V182.8H86.535v1.316H89.43Zm-5.482,3.9a1.349,1.349,0,0,1-1.316-1.316V177.316A1.349,1.349,0,0,1,83.947,176H96.228a1.349,1.349,0,0,1,1.316,1.316V189.6a1.349,1.349,0,0,1-1.316,1.316Zm0-1.316H96.228V177.316H83.947Zm-2.632,3.947A1.349,1.349,0,0,1,80,192.228v-13.6h1.316v13.6h13.6v1.316Zm2.632-16.228v0Z" transform="translate(-80 -176)" fill="#0a1423"/>
</svg>
