<svg xmlns="http://www.w3.org/2000/svg" width="16.2" height="18" viewBox="0 0 16.2 18">
  <path id="calendar_month_FILL0_wght400_GRAD0_opsz48" d="M121.35,194a1.384,1.384,0,0,1-1.35-1.35V178.7a1.384,1.384,0,0,1,1.35-1.35h1.462V176h1.463v1.35h7.65V176h1.463v1.35h1.462a1.384,1.384,0,0,1,1.35,1.35v13.95a1.384,1.384,0,0,1-1.35,1.35Zm0-1.35h13.5v-9.675h-13.5Zm0-11.025h13.5V178.7h-13.5Zm0,0v0Zm6.75,5.175a.884.884,0,1,1,.641-.259A.871.871,0,0,1,128.1,186.8Zm-3.6,0a.884.884,0,1,1,.641-.259A.871.871,0,0,1,124.5,186.8Zm7.2,0a.884.884,0,1,1,.641-.259A.871.871,0,0,1,131.7,186.8Zm-3.6,3.6a.884.884,0,1,1,.641-.259A.871.871,0,0,1,128.1,190.4Zm-3.6,0a.884.884,0,1,1,.641-.259A.871.871,0,0,1,124.5,190.4Zm7.2,0a.884.884,0,1,1,.641-.259A.871.871,0,0,1,131.7,190.4Z" transform="translate(-120 -176)" fill="#fff"/>
</svg>
