<svg id="Component_3_1" data-name="Component 3 – 1" xmlns="http://www.w3.org/2000/svg" width="66.088" height="52" viewBox="0 0 66.088 52">
  <g id="Group_21" data-name="Group 21" transform="translate(30.686 16.036)">
    <text id="_100" data-name="100" transform="translate(19.86 15.362)" fill="#3ad1e8" font-size="5" font-family="Roboto-Bold, Roboto" font-weight="700" letter-spacing="-0.05em"><tspan x="0" y="0">100</tspan></text>
    <circle id="Ellipse_9" data-name="Ellipse 9" cx="1.727" cy="1.727" r="1.727" transform="translate(26.767 2.59)" fill="#3ad1e8"/>
    <path id="Union_5" data-name="Union 5" d="M2.59,19.86A2.591,2.591,0,0,1,0,17.269V2.59A2.59,2.59,0,0,1,2.59,0H32.811A2.591,2.591,0,0,1,35.4,2.59V17.269a2.591,2.591,0,0,1-2.591,2.591ZM32.811,19V.863H18.132V19ZM2.59,19H16.728l-7.62-8.422-7.4,8.179A1.717,1.717,0,0,0,2.59,19Zm31.085-.231a1.727,1.727,0,0,0,.863-1.5V2.59a1.728,1.728,0,0,0-.863-1.5Zm-16.406-.458V1.553L9.69,9.93ZM.863,2.59V17.269a1.717,1.717,0,0,0,.235.869L8.525,9.93,1.1,1.721A1.716,1.716,0,0,0,.863,2.59Zm8.244,6.7L16.728.863H2.59a1.716,1.716,0,0,0-.883.243Z" fill="#3ad1e8"/>
  </g>
  <path id="Subtraction_16" data-name="Subtraction 16" d="M18.664,52l0,0L7.731,45.952l3.6-7.67a21.737,21.737,0,0,1-1.7-2.372A11.218,11.218,0,0,1,8.4,33.278L0,31.978V20.019l8.4-1.3a17.371,17.371,0,0,1,1.266-2.6,17.96,17.96,0,0,1,1.667-2.4l-3.6-7.67L18.662,0l5.265,7.02a8.112,8.112,0,0,1,1.366-.163c.506-.021.966-.032,1.366-.032s.861.011,1.367.032a8.111,8.111,0,0,1,1.366.163L34.658,0,45.589,6.044l-3.577,7.622H32.266A4.652,4.652,0,0,0,27.638,17.6c-.317-.032-.645-.048-.978-.048a8.5,8.5,0,0,0-6.132,2.47,8.325,8.325,0,0,0,0,11.959,8.5,8.5,0,0,0,6.132,2.471c.333,0,.665-.016.987-.049a4.666,4.666,0,0,0,4.619,3.868H42L42,38.273l-.009.01,3.6,7.67L34.659,52l-5.133-7.019a9.707,9.707,0,0,1-1.433.162c-.493.022-.975.033-1.434.033s-.929-.011-1.4-.033a9.557,9.557,0,0,1-1.4-.162L18.662,52Z" fill="#3ad1e8"/>
</svg>
