<svg id="Component_5_1" data-name="Component 5 – 1" xmlns="http://www.w3.org/2000/svg" width="44.926" height="52.049" viewBox="0 0 44.926 52.049">
  <path id="Union_37" data-name="Union 37" d="M-13535.432-3992.952H-13580V-4045h44.926v52.049Zm-2.642-1.268h1.749v-49.513h-1.749Zm-3,0h1.749v-49.513h-1.749Zm-3,0h1.751v-49.513h-1.751Zm-34.675,0h33.427v-49.513h-33.427Zm10.671-14.829a2.535,2.535,0,0,1-2.535-2.536,2.536,2.536,0,0,1,2.535-2.539h12.682a2.537,2.537,0,0,1,2.536,2.539,2.536,2.536,0,0,1-2.536,2.536Zm-1.523-2.536a1.525,1.525,0,0,0,1.523,1.523h12.682a1.525,1.525,0,0,0,1.523-1.523,1.526,1.526,0,0,0-1.523-1.527h-12.682A1.526,1.526,0,0,0-13569.6-4011.584Zm1.523-3.807a2.535,2.535,0,0,1-2.535-2.536,2.538,2.538,0,0,1,2.535-2.539h12.682a2.539,2.539,0,0,1,2.536,2.539,2.536,2.536,0,0,1-2.536,2.536Zm-1.523-2.536a1.525,1.525,0,0,0,1.523,1.523h12.682a1.525,1.525,0,0,0,1.523-1.523,1.523,1.523,0,0,0-1.523-1.523h-12.682A1.523,1.523,0,0,0-13569.6-4017.927Zm1.523-3.807a2.535,2.535,0,0,1-2.535-2.536,2.535,2.535,0,0,1,2.535-2.536h12.682a2.536,2.536,0,0,1,2.536,2.536,2.536,2.536,0,0,1-2.536,2.536Zm-1.523-2.536a1.523,1.523,0,0,0,1.523,1.523h12.682a1.523,1.523,0,0,0,1.523-1.523,1.525,1.525,0,0,0-1.523-1.523h-12.682A1.525,1.525,0,0,0-13569.6-4024.27Z" transform="translate(13580 4045.001)" fill="#3ad1e8"/>
</svg>
