<svg id="Component_4_1" data-name="Component 4 – 1" xmlns="http://www.w3.org/2000/svg" width="45" height="52" viewBox="0 0 45 52">
  <path id="Union_31" data-name="Union 31" d="M7.5,52v0H0V13.951H3.75V6.341H7.5V0H31.3L45,14.212V52Zm1.25-1.268h35V15.22H30V1.268H8.749ZM5,13.951V50.73H7.5V7.609H5ZM1.25,50.73h2.5V15.22H1.25Zm30-36.779H43L31.251,1.763Zm-6.411,25.4a1.962,1.962,0,0,1-.6-1.444h4.029a1.981,1.981,0,0,1-.593,1.444,1.968,1.968,0,0,1-2.832,0Zm-6.647-2.464V35.353h2.115V27.537a6.224,6.224,0,0,1,1.246-3.819A5.363,5.363,0,0,1,24.84,21.61v-.742a1.261,1.261,0,0,1,.415-.97,1.482,1.482,0,0,1,1.99,0,1.262,1.262,0,0,1,.415.97v.742a5.409,5.409,0,0,1,3.3,2.107,6.181,6.181,0,0,1,1.26,3.819v7.817h2.089v1.533Z" fill="#3ad1e8"/>
</svg>
