<svg xmlns="http://www.w3.org/2000/svg" xmlns:xlink="http://www.w3.org/1999/xlink" width="1833" height="1781.232" viewBox="0 0 1833 1781.232">
  <defs>
    <radialGradient id="radial-gradient" cx="0.5" cy="0.5" r="0.5" gradientTransform="translate(0 0)" gradientUnits="objectBoundingBox">
      <stop offset="0" stop-color="#3ad1e8" stop-opacity="0"/>
      <stop offset="0.813" stop-color="#3ad1e8" stop-opacity="0.059"/>
      <stop offset="0.945" stop-color="#3ad1e8" stop-opacity="0.459"/>
      <stop offset="0.99" stop-color="#3ad1e8"/>
      <stop offset="1" stop-color="#3ad1e8" stop-opacity="0.69"/>
    </radialGradient>
    <linearGradient id="linear-gradient" x1="1" y1="1" x2="0" y2="0.5" gradientUnits="objectBoundingBox">
      <stop offset="0" stop-color="#3ad1e8" stop-opacity="0"/>
      <stop offset="0.506" stop-color="#3ad1e8"/>
      <stop offset="1" stop-color="#3ad1e8" stop-opacity="0"/>
    </linearGradient>
    <linearGradient id="linear-gradient-7" x1="0.912" y1="0.5" x2="1.074" y2="0.5" gradientUnits="objectBoundingBox">
      <stop offset="0" stop-color="#3ad1e8" stop-opacity="0"/>
      <stop offset="1" stop-color="#3ad1e8"/>
    </linearGradient>
    <linearGradient id="linear-gradient-8" x1="0.5" x2="0.5" y2="1" gradientUnits="objectBoundingBox">
      <stop offset="0" stop-color="#3ad1e8" stop-opacity="0.651"/>
      <stop offset="0.326" stop-color="#3ad1e8" stop-opacity="0.149"/>
      <stop offset="0.664" stop-color="#3ad1e8" stop-opacity="0.149"/>
      <stop offset="1" stop-color="#3ad1e8" stop-opacity="0.651"/>
    </linearGradient>
    <linearGradient id="linear-gradient-9" x1="0.5" y1="0.358" x2="0.508" y2="0.66" gradientUnits="objectBoundingBox">
      <stop offset="0" stop-color="#3ad1e8" stop-opacity="0"/>
      <stop offset="0.524" stop-color="#3ad1e8"/>
      <stop offset="1" stop-color="#3ad1e8" stop-opacity="0"/>
    </linearGradient>
    <filter id="Polygon_1" x="1785" y="863.452" width="48" height="55" filterUnits="userSpaceOnUse">
      <feOffset input="SourceAlpha"/>
      <feGaussianBlur stdDeviation="3" result="blur"/>
      <feFlood flood-color="#3ad1e8" flood-opacity="0.451"/>
      <feComposite operator="in" in2="blur"/>
      <feComposite in="SourceGraphic"/>
    </filter>
  </defs>
  <g id="Group_186" data-name="Group 186" transform="translate(1181 171)">
    <g id="Group_185" data-name="Group 185" transform="translate(-1181 -171)">
      <path id="Subtraction_49" data-name="Subtraction 49" d="M884.5,1769a898.635,898.635,0,0,1-90.435-4.567,886.685,886.685,0,0,1-87.822-13.4c-28.5-5.831-57.016-13.164-84.766-21.8-27.439-8.535-54.781-18.542-81.264-29.743-26.237-11.1-52.251-23.629-77.318-37.246-24.887-13.52-49.424-28.426-72.928-44.3-23.391-15.8-46.3-32.934-68.092-50.918-21.74-17.941-42.872-37.148-62.811-57.087s-39.144-41.07-57.087-62.812c-17.987-21.8-35.119-44.7-50.919-68.092-15.878-23.5-30.785-48.04-44.3-72.927-13.618-25.068-26.149-51.081-37.246-77.318-11.2-26.479-21.207-53.82-29.743-81.264-8.632-27.754-15.965-56.273-21.8-84.766a886.839,886.839,0,0,1-13.4-87.822,897.723,897.723,0,0,1,0-180.87,886.842,886.842,0,0,1,13.4-87.822c5.831-28.493,13.164-57.012,21.8-84.766,8.536-27.443,18.543-54.784,29.743-81.264,11.1-26.237,23.628-52.25,37.246-77.318,13.519-24.887,28.425-49.423,44.3-72.927,15.8-23.387,32.932-46.3,50.919-68.092,17.943-21.742,37.15-42.875,57.087-62.812s41.071-39.146,62.811-57.087c21.792-17.984,44.7-35.116,68.092-50.918,23.5-15.878,48.041-30.785,72.928-44.3,25.067-13.617,51.08-26.148,77.318-37.246,26.483-11.2,53.825-21.209,81.264-29.743,27.75-8.631,56.269-15.964,84.766-21.8a886.693,886.693,0,0,1,87.822-13.4,897.739,897.739,0,0,1,180.871,0,886.72,886.72,0,0,1,87.823,13.4c28.5,5.831,57.016,13.164,84.766,21.8,27.439,8.535,54.781,18.542,81.264,29.743,26.237,11.1,52.251,23.629,77.318,37.246,24.892,13.522,49.428,28.428,72.927,44.3,23.387,15.8,46.3,32.931,68.092,50.918,21.739,17.941,42.872,37.148,62.811,57.087s39.148,41.074,57.087,62.812c17.984,21.791,35.115,44.7,50.919,68.092,15.878,23.5,30.784,48.041,44.3,72.927,13.616,25.065,26.148,51.079,37.245,77.318,11.2,26.484,21.209,53.825,29.744,81.264,8.631,27.752,15.965,56.271,21.795,84.766a886.748,886.748,0,0,1,13.4,87.822,897.722,897.722,0,0,1,0,180.87,886.745,886.745,0,0,1-13.4,87.822c-5.83,28.495-13.163,57.014-21.795,84.766-8.534,27.438-18.541,54.78-29.744,81.264-11.1,26.239-23.629,52.253-37.245,77.318-13.52,24.887-28.425,49.423-44.3,72.927-15.8,23.391-32.935,46.3-50.919,68.092-17.94,21.738-37.147,42.871-57.087,62.812s-41.072,39.146-62.811,57.087c-21.8,17.987-44.7,35.118-68.092,50.918-23.5,15.876-48.035,30.782-72.927,44.3-25.067,13.617-51.08,26.148-77.318,37.246-26.483,11.2-53.825,21.209-81.264,29.743-27.75,8.631-56.27,15.964-84.766,21.8a886.65,886.65,0,0,1-87.823,13.4A898.6,898.6,0,0,1,884.5,1769Zm0-1569.991c-377.982,0-685.491,307.51-685.491,685.491s307.51,685.491,685.491,685.491,685.493-307.51,685.493-685.491S1262.482,199.009,884.5,199.009Z" transform="translate(6 6.452)" opacity="0.23" fill="url(#radial-gradient)"/>
      <g id="Group_158" data-name="Group 158" transform="translate(1380 364.514)">
        <path id="Line_21" data-name="Line 21" d="M195.958.253H0V-1H195.958Z" transform="translate(190 421.882)" fill="url(#linear-gradient)"/>
        <path id="Line_21-2" data-name="Line 21" d="M195.958.253H0V-1H195.958Z" transform="translate(190.104 632.323)" fill="url(#linear-gradient)"/>
        <path id="Line_21-3" data-name="Line 21" d="M207.958.253H0V-1H207.958Z" transform="translate(120 842.764)" fill="url(#linear-gradient)"/>
        <path id="Line_21-4" data-name="Line 21" d="M207.958.253H0V-1H207.958Z" transform="translate(120 211.441)" fill="url(#linear-gradient)"/>
        <path id="Line_21-5" data-name="Line 21" d="M207.958.253H0V-1H207.958Z" transform="translate(0 1053.205)" fill="url(#linear-gradient)"/>
        <path id="Line_21-6" data-name="Line 21" d="M207.958.253H0V-1H207.958Z" transform="translate(0 1)" fill="url(#linear-gradient)"/>
      </g>
      <ellipse id="Ellipse_1" data-name="Ellipse 1" cx="676" cy="676.5" rx="676" ry="676.5" transform="translate(215 214.452)" fill="url(#linear-gradient-7)"/>
      <g id="Group_20" data-name="Group 20" transform="translate(1477.986 859.301)">
        <path id="Subtraction_7" data-name="Subtraction 7" d="M31.261,62.631h0A31.208,31.208,0,0,1,9.118,53.458a31.515,31.515,0,0,1-4-4.891l12.6-7.872a16.506,16.506,0,0,0,13.547,7.1V62.629ZM2.1,42.748h0A31.041,31.041,0,0,1,.258,35.77L0,29.443a31.069,31.069,0,0,1,2-9.3L14.806,30.375c-.017.309-.026.625-.026.941a16.47,16.47,0,0,0,.564,4.281L2.1,42.745ZM17.712,21.934h0L5.119,14.063a31.519,31.519,0,0,1,4-4.891A31.221,31.221,0,0,1,31.261,0V14.834a16.372,16.372,0,0,0-11.649,4.833,16.768,16.768,0,0,0-1.9,2.266Z" transform="translate(2.229 0)" fill="url(#linear-gradient-8)"/>
        <path id="Polygon_6" data-name="Polygon 6" d="M15.946,4.141a3,3,0,0,1,5.107,0L34.179,25.425A3,3,0,0,1,31.625,30H5.375a3,3,0,0,1-2.554-4.575Z" transform="translate(30.014 13.152) rotate(90)" fill="#3ad1e8"/>
        <path id="Subtraction_10" data-name="Subtraction 10" d="M31.261,62.631h0A31.208,31.208,0,0,1,9.118,53.458a31.515,31.515,0,0,1-4-4.891l12.6-7.872a16.506,16.506,0,0,0,13.547,7.1V62.629ZM2.1,42.748h0A31.041,31.041,0,0,1,.258,35.77L0,29.443a31.069,31.069,0,0,1,2-9.3L14.806,30.375c-.017.309-.026.625-.026.941a16.47,16.47,0,0,0,.564,4.281L2.1,42.745ZM17.712,21.934h0L5.119,14.063a31.519,31.519,0,0,1,4-4.891A31.221,31.221,0,0,1,31.261,0V14.834a16.372,16.372,0,0,0-11.649,4.833,16.768,16.768,0,0,0-1.9,2.266Z" transform="translate(2.229 0)" fill="none" stroke="#3ad1e8" stroke-width="1"/>
      </g>
      <path id="Ellipse_4" data-name="Ellipse 4" d="M890.616,1.326c-15.219,0-30.616.389-45.764,1.157C829.82,3.246,814.625,4.4,799.69,5.918c-14.827,1.506-29.8,3.408-44.505,5.655-14.6,2.231-29.337,4.863-43.793,7.821-14.361,2.939-28.837,6.28-43.024,9.93-14.1,3.628-28.3,7.66-42.2,11.983-13.822,4.3-27.724,9-41.32,13.981C571.323,60.24,557.736,65.6,544.465,71.211,531.255,76.8,518,82.79,505.073,89.019c-12.876,6.2-25.777,12.812-38.344,19.639-12.523,6.8-25.053,14.007-37.241,21.413-12.152,7.383-24.291,15.166-36.081,23.131-11.762,7.946-23.492,16.288-34.866,24.794-11.353,8.49-22.656,17.372-33.6,26.4s-21.782,18.421-32.268,27.951-20.87,19.432-30.885,29.446-19.921,20.405-29.446,30.885S213.413,314.02,204.4,324.946s-17.91,22.242-26.4,33.6c-8.506,11.374-16.848,23.1-24.794,34.866-7.965,11.79-15.748,23.93-23.131,36.081-7.406,12.188-14.61,24.718-21.413,37.241C101.831,479.3,95.223,492.2,89.019,505.073,82.79,518,76.8,531.255,71.211,544.465,65.6,557.736,60.24,571.323,55.288,584.849c-4.978,13.6-9.682,27.5-13.981,41.32-4.324,13.9-8.355,28.1-11.983,42.2-3.65,14.187-6.991,28.663-9.93,43.024-2.958,14.455-5.589,29.189-7.821,43.793-2.247,14.7-4.15,29.679-5.655,44.505C4.4,814.625,3.246,829.82,2.484,844.852,1.716,860,1.326,875.4,1.326,890.616s.389,30.616,1.157,45.764c.762,15.032,1.917,30.227,3.434,45.163,1.506,14.827,3.408,29.8,5.655,44.505,2.231,14.6,4.863,29.337,7.821,43.793,2.939,14.361,6.28,28.837,9.93,43.024,3.628,14.1,7.66,28.3,11.983,42.2,4.3,13.823,9,27.724,13.981,41.32,4.952,13.525,10.309,27.113,15.923,40.384,5.587,13.21,11.579,26.463,17.809,39.392,6.2,12.876,12.812,25.777,19.639,38.344,6.8,12.523,14.007,25.053,21.413,37.241,7.383,12.152,15.166,24.291,23.131,36.082,7.946,11.762,16.288,23.492,24.794,34.866,8.49,11.353,17.372,22.656,26.4,33.595s18.421,21.782,27.951,32.268,19.432,20.87,29.446,30.885,20.405,19.921,30.885,29.446,21.342,18.934,32.268,27.951,22.242,17.91,33.6,26.4c11.374,8.506,23.1,16.848,34.866,24.794,11.79,7.965,23.93,15.748,36.081,23.131,12.188,7.406,24.718,14.61,37.241,21.413,12.568,6.827,25.468,13.435,38.344,19.639,12.929,6.23,26.182,12.221,39.392,17.809,13.271,5.613,26.859,10.971,40.384,15.923,13.6,4.978,27.5,9.682,41.32,13.981,13.9,4.324,28.1,8.355,42.2,11.983,14.187,3.65,28.663,6.991,43.024,9.93,14.455,2.958,29.189,5.589,43.793,7.821,14.7,2.247,29.679,4.15,44.505,5.655,14.936,1.517,30.131,2.672,45.163,3.434,15.148.768,30.545,1.157,45.764,1.157s30.616-.389,45.764-1.157c15.032-.762,30.227-1.917,45.163-3.434,14.827-1.506,29.8-3.409,44.505-5.655,14.6-2.231,29.337-4.863,43.793-7.821,14.361-2.939,28.837-6.28,43.024-9.93,14.1-3.628,28.3-7.66,42.2-11.983,13.823-4.3,27.724-9,41.32-13.981,13.525-4.952,27.113-10.309,40.384-15.923,13.21-5.587,26.463-11.579,39.392-17.809,12.876-6.2,25.777-12.812,38.344-19.639,12.523-6.8,25.053-14.007,37.241-21.413,12.152-7.383,24.291-15.166,36.082-23.131,11.762-7.946,23.492-16.288,34.866-24.794,11.353-8.49,22.656-17.373,33.595-26.4s21.782-18.421,32.268-27.951,20.87-19.432,30.885-29.446,19.921-20.405,29.446-30.885,18.934-21.342,27.951-32.268,17.91-22.242,26.4-33.595c8.506-11.374,16.848-23.1,24.794-34.866,7.965-11.79,15.748-23.93,23.131-36.082,7.406-12.188,14.61-24.718,21.413-37.241,6.827-12.568,13.435-25.469,19.639-38.344,6.23-12.929,12.221-26.182,17.809-39.392,5.613-13.271,10.971-26.858,15.923-40.384,4.978-13.6,9.682-27.5,13.981-41.32,4.324-13.9,8.355-28.1,11.983-42.2,3.65-14.187,6.991-28.663,9.93-43.024,2.958-14.456,5.589-29.189,7.821-43.793,2.247-14.7,4.15-29.679,5.655-44.505,1.517-14.936,2.672-30.131,3.434-45.163.768-15.148,1.157-30.545,1.157-45.764s-.389-30.616-1.157-45.764c-.762-15.032-1.917-30.227-3.434-45.163-1.506-14.827-3.409-29.8-5.655-44.505-2.231-14.6-4.863-29.337-7.821-43.793-2.939-14.361-6.28-28.837-9.93-43.024-3.628-14.1-7.66-28.3-11.983-42.2-4.3-13.822-9-27.724-13.981-41.32-4.952-13.525-10.309-27.112-15.923-40.384-5.587-13.21-11.579-26.463-17.809-39.392-6.2-12.876-12.812-25.777-19.639-38.344-6.8-12.523-14.007-25.053-21.413-37.241-7.383-12.152-15.166-24.291-23.131-36.081-7.946-11.762-16.288-23.492-24.794-34.866-8.49-11.353-17.373-22.656-26.4-33.6s-18.421-21.782-27.951-32.268-19.432-20.87-29.446-30.885-20.405-19.921-30.885-29.446-21.342-18.934-32.268-27.951-22.242-17.91-33.595-26.4c-11.374-8.506-23.1-16.848-34.866-24.794-11.79-7.965-23.93-15.748-36.082-23.131-12.188-7.406-24.718-14.61-37.241-21.413-12.568-6.827-25.469-13.435-38.344-19.639-12.929-6.23-26.182-12.221-39.392-17.809-13.271-5.613-26.858-10.971-40.384-15.923-13.6-4.978-27.5-9.682-41.32-13.981-13.9-4.324-28.1-8.355-42.2-11.983-14.187-3.65-28.663-6.991-43.024-9.93-14.456-2.958-29.189-5.589-43.793-7.821-14.7-2.247-29.679-4.15-44.505-5.655C966.607,4.4,951.412,3.246,936.38,2.484c-15.148-.768-30.545-1.157-45.764-1.157m0-1.326c491.874,0,890.616,398.743,890.616,890.616s-398.743,890.616-890.616,890.616S0,1382.49,0,890.616,398.743,0,890.616,0Z" fill="url(#linear-gradient-9)"/>
      <path id="Ellipse_54" data-name="Ellipse 54" d="M685.186,1.253a694.9,694.9,0,0,0-69.93,3.531,685.668,685.668,0,0,0-67.908,10.364C525.314,19.657,503.262,25.327,481.8,32c-21.218,6.6-42.359,14.337-62.836,23-20.288,8.581-40.4,18.271-59.785,28.8-19.245,10.454-38.217,21.98-56.39,34.258-18.086,12.218-35.8,25.465-52.652,39.372-16.81,13.873-33.151,28.725-48.569,44.143s-30.27,31.759-44.143,48.569c-13.907,16.851-27.154,34.566-39.372,52.652-12.278,18.173-23.8,37.146-34.258,56.39C73.27,378.566,63.58,398.68,55,418.969c-8.661,20.477-16.4,41.618-23,62.836-6.674,21.458-12.344,43.51-16.853,65.544A685.668,685.668,0,0,0,4.784,615.256a694.2,694.2,0,0,0,0,139.859,685.674,685.674,0,0,0,10.364,67.908C19.657,845.057,25.327,867.109,32,888.567c6.6,21.218,14.337,42.359,23,62.836,8.581,20.288,18.271,40.4,28.8,59.785,10.454,19.244,21.98,38.217,34.258,56.39,12.218,18.086,25.465,35.8,39.372,52.652,13.873,16.81,28.725,33.151,44.143,48.569s31.759,30.27,48.569,44.143c16.851,13.907,34.566,27.154,52.652,39.372,18.173,12.277,37.146,23.8,56.39,34.258,19.382,10.529,39.5,20.219,59.785,28.8,20.477,8.661,41.618,16.4,62.836,23,21.458,6.674,43.51,12.344,65.544,16.853a685.7,685.7,0,0,0,67.908,10.364,694.178,694.178,0,0,0,139.859,0,685.7,685.7,0,0,0,67.908-10.364c22.034-4.509,44.086-10.179,65.544-16.853,21.218-6.6,42.359-14.337,62.836-23,20.288-8.581,40.4-18.271,59.785-28.8,19.244-10.454,38.217-21.98,56.39-34.258,18.086-12.218,35.8-25.465,52.652-39.372,16.81-13.873,33.151-28.725,48.569-44.143s30.27-31.759,44.143-48.569c13.907-16.851,27.154-34.566,39.372-52.652,12.277-18.173,23.8-37.146,34.258-56.39,10.529-19.382,20.219-39.5,28.8-59.785,8.661-20.477,16.4-41.618,23-62.836,6.674-21.458,12.344-43.51,16.853-65.544a685.7,685.7,0,0,0,10.364-67.908,694.178,694.178,0,0,0,0-139.859,685.7,685.7,0,0,0-10.364-67.908c-4.509-22.034-10.179-44.086-16.853-65.544-6.6-21.218-14.337-42.359-23-62.836-8.581-20.288-18.271-40.4-28.8-59.785-10.454-19.245-21.98-38.217-34.258-56.39-12.218-18.086-25.465-35.8-39.372-52.652-13.873-16.81-28.725-33.151-44.143-48.569s-31.759-30.27-48.569-44.143c-16.851-13.907-34.566-27.154-52.652-39.372-18.173-12.278-37.146-23.8-56.39-34.258C991.806,73.27,971.691,63.58,951.4,55c-20.477-8.661-41.618-16.4-62.836-23-21.458-6.674-43.51-12.344-65.544-16.853A685.674,685.674,0,0,0,755.115,4.784a694.9,694.9,0,0,0-69.93-3.531m0-1.253c378.418,0,685.186,306.768,685.186,685.186S1063.6,1370.371,685.186,1370.371,0,1063.6,0,685.186,306.768,0,685.186,0Z" transform="translate(205.43 205.43)" fill="url(#linear-gradient-9)"/>
      <g transform="matrix(1, 0, 0, 1, 0, 0)" filter="url(#Polygon_1)">
        <path id="Polygon_1-2" data-name="Polygon 1" d="M15.946,4.141a3,3,0,0,1,5.107,0L34.179,25.425A3,3,0,0,1,31.625,30H5.375a3,3,0,0,1-2.554-4.575Z" transform="translate(1794 909.45) rotate(-90)" fill="#3ad1e8"/>
      </g>
    </g>
  </g>
</svg>
