<svg id="Component_2_1" data-name="Component 2 – 1" xmlns="http://www.w3.org/2000/svg" width="40" height="40" viewBox="0 0 40 40">
  <g id="Rectangle_198" data-name="Rectangle 198" fill="none" stroke="#3ad1e8" stroke-width="1" opacity="0.3">
    <rect width="40" height="40" rx="5" stroke="none"/>
    <rect x="0.5" y="0.5" width="39" height="39" rx="4.5" fill="none"/>
  </g>
  <path id="print_FILL0_wght400_GRAD0_opsz48" d="M94.45,220.8v-3.3h-8.9v3.3h-1.5V216h11.9v4.8ZM81.5,222.3h0Zm14.975,2.375a.769.769,0,1,0-.525-.225A.72.72,0,0,0,96.475,224.675ZM94.45,232.5v-4.8h-8.9v4.8Zm1.5,1.5H84.05v-4.4H80v-6.15a2.6,2.6,0,0,1,2.65-2.65h14.7a2.6,2.6,0,0,1,2.65,2.65v6.15H95.95Zm2.55-5.9v-4.655a1.1,1.1,0,0,0-.331-.82,1.123,1.123,0,0,0-.819-.325H82.65a1.129,1.129,0,0,0-1.15,1.15v4.65h2.55v-1.9h11.9v1.9Z" transform="translate(-70 -205)" fill="#fff"/>
</svg>
