<svg id="Component_7_1" data-name="Component 7 – 1" xmlns="http://www.w3.org/2000/svg" width="45" height="52" viewBox="0 0 45 52">
  <path id="Union_36" data-name="Union 36" d="M7.5,52H0V13.951H3.75V6.341H7.5V0H31.3L45,14.212V52Zm1.25-1.268h35V15.22H30V1.268H8.75ZM5,13.951v36.78H7.5V7.61H5ZM1.25,50.731h2.5V15.221H1.25Zm30-36.779H43L31.251,1.763ZM24.565,41.747,14.462,25.9a2,2,0,0,1,1.687-3.075H36.354A2,2,0,0,1,38.039,25.9l-10.1,15.842a2,2,0,0,1-3.372,0ZM25,36.1a1.33,1.33,0,1,0,1.33-1.35A1.341,1.341,0,0,0,25,36.1Zm.385-2.138H27.18l.482-8.211H25Z" fill="#3ad1e8"/>
</svg>
