<svg id="Component_1_1" data-name="Component 1 – 1" xmlns="http://www.w3.org/2000/svg" width="40" height="40" viewBox="0 0 40 40">
  <g id="Rectangle_198" data-name="Rectangle 198" fill="none" stroke="#3ad1e8" stroke-width="1" opacity="0.3">
    <rect width="40" height="40" rx="5" stroke="none"/>
    <rect x="0.5" y="0.5" width="39" height="39" rx="4.5" fill="none"/>
  </g>
  <path id="search_FILL0_wght400_GRAD0_opsz48_3_" data-name="search_FILL0_wght400_GRAD0_opsz48 (3)" d="M136.9,233l-6.575-6.575a5.512,5.512,0,0,1-1.749,1.013,6.459,6.459,0,1,1,3.874-3.962,6.345,6.345,0,0,1-1.05,1.875l6.6,6.55Zm-10.475-6.7a4.675,4.675,0,0,0,3.453-1.437,4.927,4.927,0,0,0,0-6.925,4.675,4.675,0,0,0-3.453-1.437,4.9,4.9,0,1,0,0,9.8Z" transform="translate(-109 -204)" fill="#fff"/>
</svg>
