<svg xmlns="http://www.w3.org/2000/svg" width="41" height="41" viewBox="0 0 41 41">
  <g id="Component_6_1" data-name="Component 6 – 1" transform="translate(0.5 0.5)">
    <g id="Group_101" data-name="Group 101">
      <rect id="Rectangle_165" data-name="Rectangle 165" width="40" height="40" rx="5" fill="none" stroke="#3ad1e8" stroke-width="1"/>
    </g>
    <path id="visibility_FILL0_wght400_GRAD0_opsz48_1_" data-name="visibility_FILL0_wght400_GRAD0_opsz48 (1)" d="M52.1,268.925a4.653,4.653,0,1,0-3.314-1.361A4.5,4.5,0,0,0,52.1,268.925Zm-.01-1.6a2.955,2.955,0,0,1-2.18-.9,2.988,2.988,0,0,1-.894-2.186,2.955,2.955,0,0,1,.9-2.18,2.988,2.988,0,0,1,2.186-.894,2.955,2.955,0,0,1,2.18.9,2.987,2.987,0,0,1,.894,2.186,2.955,2.955,0,0,1-.9,2.18A2.988,2.988,0,0,1,52.094,267.33Zm.006,5.17a12.325,12.325,0,0,1-7.26-2.283A13.9,13.9,0,0,1,40,264.25a13.905,13.905,0,0,1,4.84-5.967,12.687,12.687,0,0,1,14.52,0,13.905,13.905,0,0,1,4.84,5.967,13.9,13.9,0,0,1-4.84,5.967A12.325,12.325,0,0,1,52.1,272.5ZM52.1,264.25Zm0,6.6a11.066,11.066,0,0,0,6.123-1.8,11.688,11.688,0,0,0,4.249-4.8,11.7,11.7,0,0,0-4.244-4.8,11.3,11.3,0,0,0-12.242,0,11.885,11.885,0,0,0-4.276,4.8,11.9,11.9,0,0,0,4.272,4.8A11.044,11.044,0,0,0,52.1,270.85Z" transform="translate(-31.85 -244)" fill="#fff"/>
  </g>
</svg>
