<?xml version="1.0" encoding="utf-8"?>
<!-- Generator: Adobe Illustrator 19.0.0, SVG Export Plug-In . SVG Version: 6.00 Build 0)  -->
<svg version="1.1" id="logo-11" xmlns="http://www.w3.org/2000/svg" xmlns:xlink="http://www.w3.org/1999/xlink" x="0px" y="0px"
	 width="113.9px" height="25.7px" viewBox="-243.1 384.2 113.9 25.7" style="enable-background:new -243.1 384.2 113.9 25.7;"
	 xml:space="preserve">
<style type="text/css">
	.st0{fill:#394149;}
</style>
<path class="st0" d="M-243.1,409.8h25.7v-25.6h-25.7V409.8z M-222.3,394.5h-5.4v-5.4h5.4V394.5z M-238.1,389.1h5.4v10.4h10.4v5.4
	h-15.8V389.1z M-200.7,384.2c-2.5,0-5,0.8-7.1,2.2c-2.1,1.4-3.8,3.4-4.7,5.8c-1,2.3-1.2,4.9-0.7,7.4c0.5,2.5,1.7,4.8,3.5,6.6
	c1.8,1.8,4.1,3,6.6,3.5c2.5,0.5,5.1,0.2,7.4-0.7c2.3-1,4.3-2.6,5.8-4.7c1.4-2.1,2.2-4.6,2.2-7.1c0-3.4-1.4-6.7-3.8-9.1
	S-197.3,384.2-200.7,384.2L-200.7,384.2z M-200.7,404.9c-1.6,0-3.1-0.5-4.4-1.3c-1.3-0.9-2.3-2.1-2.9-3.5c-0.6-1.4-0.8-3-0.4-4.6
	c0.3-1.5,1.1-2.9,2.2-4c1.1-1.1,2.5-1.9,4-2.2c1.5-0.3,3.1-0.1,4.6,0.4c1.4,0.6,2.7,1.6,3.5,2.9c0.9,1.3,1.3,2.8,1.3,4.4
	c0,2.1-0.8,4.1-2.3,5.6C-196.6,404.1-198.6,404.9-200.7,404.9L-200.7,404.9z M-142,384.2c-2.5,0-5,0.8-7.1,2.2
	c-2.1,1.4-3.8,3.4-4.7,5.8c-1,2.3-1.2,4.9-0.7,7.4c0.5,2.5,1.7,4.8,3.5,6.6c1.8,1.8,4.1,3,6.6,3.5c2.5,0.5,5.1,0.2,7.4-0.7
	c2.3-1,4.3-2.6,5.8-4.7c1.4-2.1,2.2-4.6,2.2-7.1c0-3.4-1.4-6.7-3.8-9.1S-138.6,384.2-142,384.2L-142,384.2z M-142,404.9
	c-1.6,0-3.1-0.5-4.4-1.3c-1.3-0.9-2.3-2.1-2.9-3.5s-0.8-3-0.4-4.6c0.3-1.5,1.1-2.9,2.2-4c1.1-1.1,2.5-1.9,4-2.2
	c1.5-0.3,3.1-0.1,4.6,0.4c1.4,0.6,2.7,1.6,3.5,2.9c0.9,1.3,1.3,2.8,1.3,4.4c0,2.1-0.8,4.1-2.3,5.6
	C-137.9,404.1-139.9,404.9-142,404.9L-142,404.9z M-171.3,384.2c-2.5,0-5,0.8-7.1,2.2c-2.1,1.4-3.8,3.4-4.7,5.8s-1.2,4.9-0.7,7.4
	c0.5,2.5,1.7,4.8,3.5,6.6c1.8,1.8,4.1,3,6.6,3.5c2.5,0.5,5.1,0.2,7.4-0.7s4.3-2.6,5.8-4.7c1.4-2.1,2.2-4.6,2.2-7.1
	c0-3.4-1.4-6.7-3.8-9.1S-167.9,384.2-171.3,384.2z M-171.3,404.9c-1.5,0-2.9-0.4-4.1-1.2c-1.2-0.8-2.2-1.8-2.9-3.1
	c-0.7-1.3-1-2.7-0.8-4.2c0.1-1.4,0.6-2.8,1.5-4c0.9-1.2,2-2.1,3.4-2.7c1.3-0.6,2.8-0.7,4.2-0.5c1.4,0.2,2.8,0.8,3.9,1.8
	c1.1,0.9,1.9,2.2,2.4,3.5h-7.5v4.9h7.5c-0.5,1.6-1.5,2.9-2.9,3.9C-168.1,404.4-169.7,404.9-171.3,404.9L-171.3,404.9z"/>
</svg>
