<?xml version="1.0" encoding="utf-8"?>
<!-- Generator: Adobe Illustrator 19.0.0, SVG Export Plug-In . SVG Version: 6.00 Build 0)  -->
<svg version="1.1" id="logo-11" xmlns="http://www.w3.org/2000/svg" xmlns:xlink="http://www.w3.org/1999/xlink" x="0px" y="0px"
	 width="113.9px" height="25.7px" viewBox="-248 384.3 113.9 25.7" style="enable-background:new -248 384.3 113.9 25.7;"
	 xml:space="preserve">
<style type="text/css">
	.st0{fill:#6495ED;}
</style>
<path class="st0" d="M-248.1,409.9h25.7v-25.6h-25.7V409.9z M-227.3,394.6h-5.4v-5.4h5.4V394.6z M-243.1,389.2h5.4v10.4h10.4v5.4
	h-15.8L-243.1,389.2L-243.1,389.2z M-205.7,384.3c-2.5,0-5,0.8-7.1,2.2c-2.1,1.4-3.8,3.4-4.7,5.8c-1,2.3-1.2,4.9-0.7,7.4
	s1.7,4.8,3.5,6.6c1.8,1.8,4.1,3,6.6,3.5s5.1,0.2,7.4-0.7c2.3-1,4.3-2.6,5.8-4.7c1.4-2.1,2.2-4.6,2.2-7.1c0-3.4-1.4-6.7-3.8-9.1
	S-202.3,384.3-205.7,384.3L-205.7,384.3z M-205.7,405c-1.6,0-3.1-0.5-4.4-1.3c-1.3-0.9-2.3-2.1-2.9-3.5c-0.6-1.4-0.8-3-0.4-4.6
	c0.3-1.5,1.1-2.9,2.2-4c1.1-1.1,2.5-1.9,4-2.2c1.5-0.3,3.1-0.1,4.6,0.4c1.4,0.6,2.7,1.6,3.5,2.9c0.9,1.3,1.3,2.8,1.3,4.4
	c0,2.1-0.8,4.1-2.3,5.6C-201.6,404.2-203.6,405-205.7,405L-205.7,405z M-147,384.3c-2.5,0-5,0.8-7.1,2.2c-2.1,1.4-3.8,3.4-4.7,5.8
	c-1,2.3-1.2,4.9-0.7,7.4s1.7,4.8,3.5,6.6c1.8,1.8,4.1,3,6.6,3.5s5.1,0.2,7.4-0.7c2.3-1,4.3-2.6,5.8-4.7c1.4-2.1,2.2-4.6,2.2-7.1
	c0-3.4-1.4-6.7-3.8-9.1S-143.6,384.3-147,384.3L-147,384.3z M-147,405c-1.6,0-3.1-0.5-4.4-1.3c-1.3-0.9-2.3-2.1-2.9-3.5
	s-0.8-3-0.4-4.6c0.3-1.5,1.1-2.9,2.2-4c1.1-1.1,2.5-1.9,4-2.2c1.5-0.3,3.1-0.1,4.6,0.4c1.4,0.6,2.7,1.6,3.5,2.9
	c0.9,1.3,1.3,2.8,1.3,4.4c0,2.1-0.8,4.1-2.3,5.6C-142.9,404.2-144.9,405-147,405L-147,405z M-176.3,384.3c-2.5,0-5,0.8-7.1,2.2
	c-2.1,1.4-3.8,3.4-4.7,5.8s-1.2,4.9-0.7,7.4s1.7,4.8,3.5,6.6c1.8,1.8,4.1,3,6.6,3.5s5.1,0.2,7.4-0.7s4.3-2.6,5.8-4.7
	c1.4-2.1,2.2-4.6,2.2-7.1c0-3.4-1.4-6.7-3.8-9.1S-172.9,384.3-176.3,384.3z M-176.3,405c-1.5,0-2.9-0.4-4.1-1.2
	c-1.2-0.8-2.2-1.8-2.9-3.1c-0.7-1.3-1-2.7-0.8-4.2c0.1-1.4,0.6-2.8,1.5-4s2-2.1,3.4-2.7c1.3-0.6,2.8-0.7,4.2-0.5s2.8,0.8,3.9,1.8
	c1.1,0.9,1.9,2.2,2.4,3.5h-7.5v4.9h7.5c-0.5,1.6-1.5,2.9-2.9,3.9C-173.1,404.5-174.7,405-176.3,405L-176.3,405z"/>
</svg>
