<svg id="b0aee610-00d7-4488-8730-f6e3cf73936b" data-name="Layer 1" xmlns="http://www.w3.org/2000/svg" viewBox="0 0 273.8 100"><defs><style>.a3623e5c-b409-44df-9ec0-a164fe759d9f,.fcc94ad7-4542-4707-bf6a-043ff723f8cd{fill:#fff;}.b3b82268-2c7e-467a-aeda-24e5b1d74254{fill:#034ea0;}.a3623e5c-b409-44df-9ec0-a164fe759d9f,.a9b770d0-0522-43fa-acf9-7c653d19e072,.b3b82268-2c7e-467a-aeda-24e5b1d74254,.ee1e6765-d38c-4d58-b5f1-2e82a76b7b53{fill-rule:evenodd;}.ee1e6765-d38c-4d58-b5f1-2e82a76b7b53{fill:#eb1c24;}.a00fdbc0-b815-4d5c-86e5-158b7b1b96e6,.a9b770d0-0522-43fa-acf9-7c653d19e072{fill:#ffc905;}.beb359ee-924c-4eeb-9358-a6c65f0fea3c{fill:#231f20;}.b1646ed3-2e78-4ebc-9270-27bc8739bf26{fill:#d61921;}</style></defs><path class="fcc94ad7-4542-4707-bf6a-043ff723f8cd" d="M265.29,43.41v-.8h2.09l-2.09-4.84v-2l.23-.53H266l5.65,13.2-1,0-1,0c-.44-1.29-.84-2.31-1.16-3.11-.22-.53-.48-1.16-.84-2Zm0-7.6v2h0l-2.09,4.84h2.09v.8h-2.44c-.71,1.83-1.11,2.85-1.2,3.11-.22.49-.4,1.16-.67,2l-.67,0-.66,0,5.64-12.67ZM173.05,48.7v-.62a4.53,4.53,0,0,0,4-2.31,7.1,7.1,0,0,0,1.15-3.87,8.8,8.8,0,0,0-.26-2.27,4.67,4.67,0,0,0-.94-1.91,4.26,4.26,0,0,0-1.73-1.33,5.23,5.23,0,0,0-2.18-.49h-.09v-.62a7.73,7.73,0,0,1,4.8,1.55,5.83,5.83,0,0,1,2.27,4.94,6.64,6.64,0,0,1-2,5,7.13,7.13,0,0,1-5.07,1.91Zm10.76-13.11H195.1V48.48l-.84,0-.85,0v-12l-3.95,0-4,0v12l-.8,0-.85,0V35.59ZM201.37,47.5h4.18v-12l.84.09a4.41,4.41,0,0,0,.85-.09v12h4.18v-12l.84.09.8-.09v13h-3.2c-1.2,0-2.36,0-3.47,0h-3.95c-1,0-1.87,0-2.71,0v-13l.8.09.84-.09v12Zm20.8-11v12l-.8,0-.84,0v-12c-1,0-1.69,0-2.09,0s-1.11.09-2,.18l0-.58,0-.53h9.73l0,.53,0,.58c-.44,0-1.07-.09-1.78-.13s-1.42-.09-2.18-.09Zm7.25,12V35.59h.31a2,2,0,0,0,.53,0l.8,0v9.82h.23l8.58-9.82h.84V48.48l-.84,0-.85,0V38.17h-.18L231,47.37l-1,1.11ZM254.94,41V35.59l.84,0,.8,0V48.48l-.8,0-.84,0V42h-1.52c-1.51,0-2.31-.09-2.44-.09-.62,0-1.38,0-2.36.05s-1.46,0-1.64,0v6.49l-.85,0-.8,0V35.59l.8,0,.85,0V41c.62,0,1.42,0,2.35.05s1.52,0,1.65,0c.58,0,1.07,0,1.47,0C254,41,254.8,41,254.94,41Zm-81.89-5.73v.62a4.86,4.86,0,0,0-3.82,1.73,7.23,7.23,0,0,0-1.42,4.63,6,6,0,0,0,1.51,4.35A4.84,4.84,0,0,0,173,48.08h.09v.62h-.13a6.92,6.92,0,0,1-5.07-1.82A6.44,6.44,0,0,1,165.94,42,6.45,6.45,0,0,1,168,37.1a7,7,0,0,1,5-1.82Zm-20.76,8.13v-.8h2.09l-2.09-4.84v-2l.23-.53H153l5.65,13.2-1,0-1,0c-.49-1.29-.84-2.31-1.16-3.11-.22-.53-.48-1.16-.84-2Zm0-7.6v2h0l-2.05,4.84h2.09v.8h-2.44c-.71,1.83-1.16,2.85-1.25,3.11-.17.49-.4,1.16-.62,2l-.71,0-.67,0,5.69-12.67ZM112.15,48.44v-.89h4l-4-9.92h0v-2h.8L114,38.12c0,.05.76,1.78,2.18,5.16.75,1.91,1.38,3.33,1.78,4.27h.8l0,.75v.45c0,.17,0,.31,0,.49h-.18a1.49,1.49,0,0,0-1.07-.67,18.61,18.61,0,0,0-2.71-.13Zm19.43-2-.09,1.2a5.35,5.35,0,0,1-1.91.84,13,13,0,0,1-2.27.22,6.31,6.31,0,0,1-4.84-1.82A6.65,6.65,0,0,1,120.69,42a6.31,6.31,0,0,1,2-4.94,7.34,7.34,0,0,1,5.07-1.73,11.25,11.25,0,0,1,2,.22,13.16,13.16,0,0,1,2,.67c0,.17-.14.4-.23.71a5.88,5.88,0,0,0-.17.71l-.14,0a3.36,3.36,0,0,0-.71-.66,5.08,5.08,0,0,0-2.89-1,4.66,4.66,0,0,0-3.87,1.82A6.48,6.48,0,0,0,122.51,42a6.42,6.42,0,0,0,1.42,4.32A4.52,4.52,0,0,0,127.58,48a6.21,6.21,0,0,0,4-1.55Zm13.16-10.85-4.27,4.09-1.65,1.64c1.56,1.74,3.07,3.47,4.63,5.2L145,48.39v.09l-1,0-1.07,0c-.22-.27-.4-.58-.62-.89l-.67-.8L137.45,42a.38.38,0,0,0-.27-.09,0,0,0,0,0,0,0v6.58l-.85,0-.84,0V35.59l.84,0,.85,0v5.82c0,.05,0,.05.17.05a1.09,1.09,0,0,0,.31-.18c.09-.09.32-.27.63-.58a2.75,2.75,0,0,1,.35-.31l4.63-4.8.75,0Zm-32.59,0v2h0c-.53,1.2-1,2.23-1.38,3.07-.48,1.11-.93,2.18-1.33,3.25s-.89,2.35-1.33,3.6h4v.89h-3.91a2.92,2.92,0,0,0-2,.8h-.13c0-.14,0-.32,0-.54v-.4l0-.75h.8c.35-.76.93-2,1.78-4s1.55-3.6,2-4.76l1.33-3.24ZM98.46,43.41v-.8h2.09l-2.09-4.84v-2l.27-.53h.4l5.69,13.2-1,0-1,0c-.45-1.29-.85-2.31-1.16-3.11-.18-.53-.44-1.16-.8-2Zm0-7.6v2h0l-2.09,4.84h2.09v.8h-2.4c-.76,1.83-1.16,2.85-1.24,3.11-.18.49-.4,1.16-.63,2l-.71,0-.66,0,5.64-12.67Zm-12,6.76v-.85a2.87,2.87,0,0,0,2.4-3,2.48,2.48,0,0,0-.49-1.65,1.87,1.87,0,0,0-1.2-.76c-.27,0-.53,0-.71,0v-.71a6.26,6.26,0,0,1,3.11.67,2.66,2.66,0,0,1,1,2.4,3.12,3.12,0,0,1-1,2.57,5.91,5.91,0,0,1-3,1.29A.12.12,0,0,0,86.46,42.57Zm-14.4,5.91V35.59h6.71l0,.53,0,.54a8.28,8.28,0,0,0-.94-.14,4.41,4.41,0,0,0-.75,0H73.75v12H72.06Zm14.4-12.89v.71H84v5.51s.23,0,.54,0h1a2.19,2.19,0,0,0,.31,0,2.07,2.07,0,0,0,.58-.09v.85a2.32,2.32,0,0,0-.53,0H84.68a4,4,0,0,0-.67,0v5.91l-.84,0-.8,0V35.59h4.09Z"/><path class="fcc94ad7-4542-4707-bf6a-043ff723f8cd" d="M72.06,48.48V35.59h6.71l0,.53,0,.54a8.28,8.28,0,0,0-.94-.14,4.41,4.41,0,0,0-.75,0H73.75v12H72.06Zm12-5.91v5.91l-.84,0-.8,0V35.59h3.38a7.72,7.72,0,0,1,3.82.67,2.66,2.66,0,0,1,1,2.4,3.12,3.12,0,0,1-1,2.57,5.91,5.91,0,0,1-3,1.29,4.73,4.73,0,0,1-.62.09H84.68a4,4,0,0,0-.67,0Zm0-6.27v5.51s.23,0,.54,0h1a2.19,2.19,0,0,0,.31,0,3.33,3.33,0,0,0,2.18-.93,3,3,0,0,0,.8-2.13,2.48,2.48,0,0,0-.49-1.65,1.87,1.87,0,0,0-1.2-.76c-.49,0-.84,0-1.07,0H84Zm15.12-1,5.69,13.2-1,0-1,0c-.45-1.29-.85-2.31-1.16-3.11-.18-.53-.44-1.16-.8-2h-4.8c-.76,1.83-1.16,2.85-1.24,3.11-.18.49-.4,1.16-.63,2l-.71,0-.66,0,5.91-13.2Zm1.42,7.33-2.09-4.84-2.09,4.84Zm5.56,4.94h.8c.35-.76.93-2,1.78-4s1.55-3.6,2-4.76l1.33-3.24H113L114,38.12c0,.05.76,1.78,2.18,5.16.75,1.91,1.38,3.33,1.78,4.27h.8l0,.75v.45c0,.17,0,.31,0,.49h-.18a1.49,1.49,0,0,0-1.07-.67,18.61,18.61,0,0,0-2.71-.13h-6.58a2.92,2.92,0,0,0-2,.8h-.13c0-.14,0-.32,0-.54v-.4l0-.75Zm2,0h8.09l-4-9.92h0c-.53,1.2-1,2.23-1.38,3.07-.48,1.11-.93,2.18-1.33,3.25s-.89,2.35-1.33,3.6Zm23.47-1.11-.09,1.2a5.35,5.35,0,0,1-1.91.84,13,13,0,0,1-2.27.22,6.31,6.31,0,0,1-4.84-1.82A6.65,6.65,0,0,1,120.69,42a6.31,6.31,0,0,1,2-4.94,7.34,7.34,0,0,1,5.07-1.73,11.25,11.25,0,0,1,2,.22,13.16,13.16,0,0,1,2,.67c0,.17-.14.4-.23.71a5.88,5.88,0,0,0-.17.71l-.14,0a3.36,3.36,0,0,0-.71-.66,5.08,5.08,0,0,0-2.89-1,4.66,4.66,0,0,0-3.87,1.82A6.48,6.48,0,0,0,122.51,42a6.42,6.42,0,0,0,1.42,4.32A4.52,4.52,0,0,0,127.58,48a6.21,6.21,0,0,0,4-1.55Zm13.16-10.85-4.27,4.09-1.65,1.64c1.56,1.74,3.07,3.47,4.63,5.2L145,48.39v.09l-1,0-1.07,0c-.22-.27-.4-.58-.62-.89l-.67-.8L137.45,42a.38.38,0,0,0-.27-.09,0,0,0,0,0,0,0v6.58l-.85,0-.84,0V35.59l.84,0,.85,0v5.82c0,.05,0,.05.17.05a1.09,1.09,0,0,0,.31-.18c.09-.09.32-.27.63-.58a2.75,2.75,0,0,1,.35-.31l4.63-4.8.75,0,.76,0Zm8.22-.31,5.65,13.2-1,0-1,0c-.49-1.29-.84-2.31-1.16-3.11-.22-.53-.48-1.16-.84-2h-4.8c-.71,1.83-1.16,2.85-1.25,3.11-.17.49-.4,1.16-.62,2l-.71,0-.67,0,5.92-13.2Zm1.42,7.33-2.13-4.84-2.05,4.84Zm18.54,6.09a6.92,6.92,0,0,1-5.07-1.82A6.44,6.44,0,0,1,165.94,42,6.45,6.45,0,0,1,168,37.1a7,7,0,0,1,5-1.82,7.65,7.65,0,0,1,4.89,1.55,5.83,5.83,0,0,1,2.27,4.94,6.64,6.64,0,0,1-2,5,7.15,7.15,0,0,1-5.2,1.91Zm5.33-6.8a8.8,8.8,0,0,0-.26-2.27,4.67,4.67,0,0,0-.94-1.91,4.26,4.26,0,0,0-1.73-1.33,5.23,5.23,0,0,0-2.18-.49,4.8,4.8,0,0,0-3.91,1.73,7.23,7.23,0,0,0-1.42,4.63,6,6,0,0,0,1.51,4.35A4.84,4.84,0,0,0,173,48.08a4.62,4.62,0,0,0,4.14-2.31,7.1,7.1,0,0,0,1.15-3.87Zm5.56-6.31H195.1V48.48l-.84,0-.85,0v-12l-3.95,0-4,0v12l-.8,0-.85,0V35.59ZM201.37,47.5h4.18v-12l.84.09a4.41,4.41,0,0,0,.85-.09v12h4.18v-12l.84.09.8-.09v13h-3.2c-1.2,0-2.36,0-3.47,0h-3.95c-1,0-1.87,0-2.71,0v-13l.8.09.84-.09v12Zm20.8-11v12l-.8,0-.84,0v-12c-1,0-1.69,0-2.09,0s-1.11.09-2,.18l0-.58,0-.53h9.73l0,.53,0,.58c-.44,0-1.07-.09-1.78-.13s-1.42-.09-2.18-.09Zm7.25,12V35.59h.31a2,2,0,0,0,.53,0l.8,0v9.82h.23l8.58-9.82h.84V48.48l-.84,0-.85,0V38.17h-.18L231,47.37l-1,1.11ZM254.94,41V35.59l.84,0,.8,0V48.48l-.8,0-.84,0V42h-1.52c-1.51,0-2.31-.09-2.44-.09-.62,0-1.38,0-2.36.05s-1.46,0-1.64,0v6.49l-.85,0-.8,0V35.59l.8,0,.85,0V41c.62,0,1.42,0,2.35.05s1.52,0,1.65,0c.58,0,1.07,0,1.47,0C254,41,254.8,41,254.94,41Zm11-5.73,5.65,13.2-1,0-1,0c-.44-1.29-.84-2.31-1.16-3.11-.22-.53-.48-1.16-.84-2h-4.8c-.71,1.83-1.11,2.85-1.2,3.11-.22.49-.4,1.16-.67,2l-.67,0-.66,0,5.87-13.2Zm1.42,7.33-2.09-4.84-2.09,4.84Z"/><path class="fcc94ad7-4542-4707-bf6a-043ff723f8cd" d="M260.14,71.42V70h3.78l-3.78-8.76V57.68l.44-.93h.8l10.23,23.91-1.78-.13-1.78.13c-.84-2.35-1.51-4.26-2.09-5.69-.4-.93-.89-2.08-1.51-3.55Zm0-13.74v3.51L256.36,70h3.78v1.42h-4.4c-1.29,3.29-2.05,5.2-2.23,5.64-.31.89-.71,2.09-1.15,3.6l-1.25-.13-1.2.13,10.23-23ZM109.62,71.42V70h3.78l-3.78-8.76V57.68l.44-.93h.76l10.27,23.91-1.78-.13-1.82.13c-.8-2.35-1.51-4.26-2.09-5.69-.36-.93-.85-2.08-1.47-3.55ZM134,61c-1.6,3.65-3.11,7.2-4.44,10.63s-2.49,6.44-3.34,9.06L125,80.53l-1.25.13c.44-.8,1.38-2.84,2.85-6.13,1.2-2.67,2.62-6,4.31-9.91s2.71-6.36,3-7.38h1.6c.76,1.82,1.47,3.6,2.22,5.42,1.16,2.8,2.67,6.36,4.45,10.58s2.8,6.54,3.24,7.42l-1.64-.13-1.65.13L134.33,61ZM151,80.66V57.24a4.89,4.89,0,0,0,.53.09c.27,0,.63,0,1,0l1.51-.13V75.11h.31l15.52-17.87h1.51V80.66l-1.51-.13-1.47.13V62H168L153.76,78.58,152,80.66ZM187.15,61c-1.65,3.65-3.12,7.2-4.49,10.63s-2.45,6.44-3.34,9.06l-1.24-.13-1.25.13c.4-.8,1.38-2.84,2.85-6.13,1.2-2.67,2.62-6,4.31-9.91s2.71-6.36,3-7.38h1.6c.71,1.82,1.47,3.6,2.22,5.42,1.16,2.8,2.63,6.36,4.45,10.58s2.8,6.54,3.25,7.42l-1.65-.13-1.69.13L187.46,61Zm27.2,9.29c1.47-2.84,2.71-5.38,3.78-7.6,1.29-2.67,2.13-4.44,2.53-5.42l1.16.13,1.24-.13c-.35.58-1.42,2.62-3.24,6.13-2.09,4-3.78,7.34-5.16,10-1.87,3.78-3.07,6.18-3.55,7.29L210,80.53l-1.51.13c.66-1.06,1.55-2.62,2.71-4.66.35-.63.8-1.43,1.33-2.4-.84-1.25-1.73-2.54-2.58-3.78-1.86-2.71-3.6-5.2-5.15-7.47-2-2.85-3.2-4.53-3.65-5.11l2.14.13,1.82-.13c1.29,2.13,2.62,4.22,4,6.22,1.69,2.53,3.29,4.8,4.84,6.8ZM235.87,61c-1.65,3.65-3.12,7.2-4.49,10.63S228.93,78,228,80.66l-1.24-.13-1.25.13c.4-.8,1.34-2.84,2.85-6.13,1.15-2.67,2.62-6,4.31-9.91s2.67-6.36,3-7.38h1.64c.71,1.82,1.47,3.6,2.23,5.42,1.15,2.8,2.62,6.36,4.44,10.58s2.8,6.54,3.25,7.42l-1.65-.13-1.69.13L236.13,61ZM73.43,57.24H93.88V80.66l-1.51-.13-1.51.13V59l-7.2-.13-7.2.13V80.66L75,80.53l-1.52.13V57.24Zm36.19.44v3.51L105.84,70h3.78v1.42h-4.4c-1.34,3.29-2,5.2-2.22,5.64-.36.89-.72,2.09-1.16,3.6l-1.29-.13-1.2.13Z"/><path class="fcc94ad7-4542-4707-bf6a-043ff723f8cd" d="M73.43,57.24H93.88V80.66l-1.51-.13-1.51.13V59l-7.2-.13-7.2.13V80.66L75,80.53l-1.52.13V57.24Zm37.39-.49,10.27,23.91-1.78-.13-1.82.13c-.8-2.35-1.51-4.26-2.09-5.69-.36-.93-.85-2.08-1.47-3.55h-8.71c-1.34,3.29-2,5.2-2.22,5.64-.36.89-.72,2.09-1.16,3.6l-1.29-.13-1.2.13,10.71-23.91ZM113.4,70l-3.78-8.81L105.84,70ZM134,61c-1.6,3.65-3.11,7.2-4.44,10.63s-2.49,6.44-3.34,9.06L125,80.53l-1.25.13c.44-.8,1.38-2.84,2.85-6.13,1.2-2.67,2.62-6,4.31-9.91s2.71-6.36,3-7.38h1.6c.76,1.82,1.47,3.6,2.22,5.42,1.16,2.8,2.67,6.36,4.45,10.58s2.8,6.54,3.24,7.42l-1.64-.13-1.65.13L134.33,61ZM151,80.66V57.24a4.89,4.89,0,0,0,.53.09c.27,0,.63,0,1,0l1.51-.13V75.11h.31l15.52-17.87h1.51V80.66l-1.51-.13-1.47.13V62H168L153.76,78.58,152,80.66ZM187.15,61c-1.65,3.65-3.12,7.2-4.49,10.63s-2.45,6.44-3.34,9.06l-1.24-.13-1.25.13c.4-.8,1.38-2.84,2.85-6.13,1.2-2.67,2.62-6,4.31-9.91s2.71-6.36,3-7.38h1.6c.71,1.82,1.47,3.6,2.22,5.42,1.16,2.8,2.63,6.36,4.45,10.58s2.8,6.54,3.25,7.42l-1.65-.13-1.69.13L187.46,61Zm27.2,9.29c1.47-2.84,2.71-5.38,3.78-7.6,1.29-2.67,2.13-4.44,2.53-5.42l1.16.13,1.24-.13c-.35.58-1.42,2.62-3.24,6.13-2.09,4-3.78,7.34-5.16,10-1.87,3.78-3.07,6.18-3.55,7.29L210,80.53l-1.51.13c.66-1.06,1.55-2.62,2.71-4.66.35-.63.8-1.43,1.33-2.4-.84-1.25-1.73-2.54-2.58-3.78-1.86-2.71-3.6-5.2-5.15-7.47-2-2.85-3.2-4.53-3.65-5.11l2.14.13,1.82-.13c1.29,2.13,2.62,4.22,4,6.22,1.69,2.53,3.29,4.8,4.84,6.8ZM235.87,61c-1.65,3.65-3.12,7.2-4.49,10.63S228.93,78,228,80.66l-1.24-.13-1.25.13c.4-.8,1.34-2.84,2.85-6.13,1.15-2.67,2.62-6,4.31-9.91s2.67-6.36,3-7.38h1.64c.71,1.82,1.47,3.6,2.23,5.42,1.15,2.8,2.62,6.36,4.44,10.58s2.8,6.54,3.25,7.42l-1.65-.13-1.69.13L236.13,61Zm25.51-4.22,10.23,23.91-1.78-.13-1.78.13c-.84-2.35-1.51-4.26-2.09-5.69-.4-.93-.89-2.08-1.51-3.55h-8.71c-1.29,3.29-2.05,5.2-2.23,5.64-.31.89-.71,2.09-1.15,3.6l-1.25-.13-1.2.13,10.67-23.91ZM263.92,70l-3.78-8.81L256.36,70Z"/><path class="fcc94ad7-4542-4707-bf6a-043ff723f8cd" d="M3.46,64.59H57.68a0,0,0,0,1,0,0v7.27A27.11,27.11,0,0,1,30.57,99h0A27.11,27.11,0,0,1,3.46,71.86V64.59a0,0,0,0,1,0,0Z"/><path class="b3b82268-2c7e-467a-aeda-24e5b1d74254" d="M31.89,64l-.41-.45-.66-.36V31.89l2,2.8,1.12.76,2.29.46,4.63.31,7.9-.06,8.87,0,.25,27.79L56.79,64Z"/><polygon class="ee1e6765-d38c-4d58-b5f1-2e82a76b7b53" points="3.29 36.14 26.05 36.03 27.04 35.58 27.59 35.15 28.58 34.43 29.17 33.66 29.44 32.84 29.94 32.18 30.05 31.75 30.15 33.16 30.09 34.77 30.15 63.16 29.71 63.39 29.22 63.88 24.96 63.93 3.4 63.93 3.29 36.14"/><path class="a00fdbc0-b815-4d5c-86e5-158b7b1b96e6" d="M31,100h-1A28.28,28.28,0,0,1,2.25,71.77V35l23.1,0c1.12,0,2.8-1.09,4.18-4.16l.95-2.14.93,2.15C32.24,32.73,33.83,35,35.6,35l23.11,0V72.52h0A28.3,28.3,0,0,1,31,100Zm-1-2.06h1A26.21,26.21,0,0,0,56.65,71.77V71.7c0-.07,0-.14,0-.21v-1h0V37.05l-21,0c-2.4,0-4.12-2-5.13-3.6-2,3.21-4.17,3.6-5.11,3.6l-21.06,0V71.77A26.23,26.23,0,0,0,30,97.94Z"/><rect class="a00fdbc0-b815-4d5c-86e5-158b7b1b96e6" x="29.53" y="30.81" width="1.89" height="32.3"/><polygon class="a00fdbc0-b815-4d5c-86e5-158b7b1b96e6" points="57.16 65.44 3.46 65.44 3.46 63.74 3.59 63.74 3.59 63.1 57.16 63.1 57.16 65.44"/><path class="a3623e5c-b409-44df-9ec0-a164fe759d9f" d="M30.49,91.44h0q-16.15-.8-19.36-17A21.15,21.15,0,0,0,8.7,76.23,11.78,11.78,0,0,0,5,73.06q6.1,0,12.23,0c0-.1,0-.22,0-.32a1.4,1.4,0,1,1,2.8,0,.71.71,0,0,1-.09.38c4.16-.63,7.64-4.28,10.2-7.26a1.41,1.41,0,0,1-1-1.36,1.39,1.39,0,0,1,1.39-1.39,1.4,1.4,0,0,1,1.41,1.39,1.38,1.38,0,0,1-1.11,1.36c3.79,4.35,7,6.76,10.21,7.26a.72.72,0,0,1-.08-.38,1.4,1.4,0,1,1,2.79,0c0,.1,0,.22,0,.32q6.11,0,12.23,0a11.71,11.71,0,0,0-3.68,3.17,19.5,19.5,0,0,0-2.39-1.78Q46.68,90.65,30.49,91.44Z"/><path class="a00fdbc0-b815-4d5c-86e5-158b7b1b96e6" d="M30.49,91.7h0c-10.75-.53-17.32-6.19-19.54-16.83a23.78,23.78,0,0,0-2.05,1.56.31.31,0,0,1-.19.06.32.32,0,0,1-.18-.1A11.55,11.55,0,0,0,4.9,73.28.26.26,0,0,1,4.78,73,.26.26,0,0,1,5,72.8H17v-.07a1.66,1.66,0,1,1,3.32,0s0,0,0,.06c3.67-.73,6.81-3.82,9.43-6.84a1.67,1.67,0,0,1-.86-1.46A1.66,1.66,0,1,1,31.25,66c3.63,4.11,6.56,6.24,9.42,6.82v-.06a1.66,1.66,0,1,1,3.31,0v.07h12a.26.26,0,0,1,.24.19.26.26,0,0,1-.12.29,11.8,11.8,0,0,0-3.6,3.11.29.29,0,0,1-.18.1.31.31,0,0,1-.19-.06,19.54,19.54,0,0,0-2-1.56C47.82,85.51,41.25,91.17,30.5,91.7ZM11.09,74.19a.23.23,0,0,1,.11,0,.24.24,0,0,1,.14.18c1.05,5.32,3.19,9.42,6.36,12.21s7.46,4.32,12.77,4.58h0c5.31-.26,9.61-1.81,12.77-4.58s5.31-6.89,6.36-12.21a.25.25,0,0,1,.15-.18.25.25,0,0,1,.24,0,19.15,19.15,0,0,1,2.21,1.63A12.2,12.2,0,0,1,55,73.31H43.69a.27.27,0,0,1-.19-.08.25.25,0,0,1-.06-.2c0-.1,0-.22,0-.3a1.14,1.14,0,1,0-2.27,0,.61.61,0,0,0,0,.23.26.26,0,0,1,0,.29.27.27,0,0,1-.25.12c-3.18-.5-6.37-2.77-10.36-7.35a.26.26,0,0,1-.05-.25.24.24,0,0,1,.2-.17,1.13,1.13,0,0,0,.89-1.11,1.15,1.15,0,0,0-2.29,0,1.16,1.16,0,0,0,.85,1.11.27.27,0,0,1,.18.18.3.3,0,0,1-.05.24c-2.82,3.28-6.26,6.72-10.36,7.35a.26.26,0,0,1-.25-.41s0-.1,0-.23a1.15,1.15,0,0,0-1.14-1.15,1.17,1.17,0,0,0-1.15,1.15,1.62,1.62,0,0,0,0,.18s0,.08,0,.12a.26.26,0,0,1-.07.2.24.24,0,0,1-.19.08H5.94a12,12,0,0,1,2.8,2.55A19.86,19.86,0,0,1,11,74.23.33.33,0,0,1,11.09,74.19Z"/><polygon class="a9b770d0-0522-43fa-acf9-7c653d19e072" points="25.84 70.87 23.7 72.81 25.37 72.81 25.84 70.87"/><polygon class="a9b770d0-0522-43fa-acf9-7c653d19e072" points="28.42 69.09 28.22 69.39 25.96 72.77 27.45 72.72 28.42 69.09"/><polygon class="a9b770d0-0522-43fa-acf9-7c653d19e072" points="29.93 68.26 28.02 72.59 29.78 72.59 29.93 68.26"/><polygon class="a9b770d0-0522-43fa-acf9-7c653d19e072" points="34.94 70.87 37.08 72.81 35.41 72.81 34.94 70.87"/><polygon class="a9b770d0-0522-43fa-acf9-7c653d19e072" points="32.35 69.09 32.56 69.4 34.82 72.77 33.33 72.72 32.35 69.09"/><polygon class="a9b770d0-0522-43fa-acf9-7c653d19e072" points="30.85 68.26 32.75 72.59 30.98 72.59 30.85 68.26"/><path class="a9b770d0-0522-43fa-acf9-7c653d19e072" d="M29.11,73.34h3c0,.64-.64,1.12-1.6,1.1S29.07,74,29.11,73.34Z"/><path class="a9b770d0-0522-43fa-acf9-7c653d19e072" d="M20.81,73.62h2.36c0,.49-.5.87-1.24.85S20.79,74.11,20.81,73.62Z"/><path class="a9b770d0-0522-43fa-acf9-7c653d19e072" d="M23.43,73.62h2.36c0,.49-.49.87-1.24.85S23.41,74.11,23.43,73.62Z"/><path class="a9b770d0-0522-43fa-acf9-7c653d19e072" d="M26.05,73.62h2.36c0,.49-.51.87-1.24.85S26,74.11,26.05,73.62Z"/><path class="a9b770d0-0522-43fa-acf9-7c653d19e072" d="M32.87,73.62h2.35c0,.49-.5.87-1.24.85S32.85,74.11,32.87,73.62Z"/><path class="a9b770d0-0522-43fa-acf9-7c653d19e072" d="M35.48,73.62h2.36c0,.49-.49.87-1.24.85S35.46,74.11,35.48,73.62Z"/><path class="a9b770d0-0522-43fa-acf9-7c653d19e072" d="M38.1,73.62h2.36c0,.49-.49.87-1.24.85S38.08,74.11,38.1,73.62Z"/><path class="a9b770d0-0522-43fa-acf9-7c653d19e072" d="M19.17,74.39h1c.09,1.53.4,5.4-1.58,7.8A24.27,24.27,0,0,0,19.17,74.39Z"/><path class="a9b770d0-0522-43fa-acf9-7c653d19e072" d="M21.69,75h1c0,3.61,0,7-4.88,10.24A12.4,12.4,0,0,0,21.69,75Z"/><path class="a9b770d0-0522-43fa-acf9-7c653d19e072" d="M23.32,75.24h1c.08,3.89-.2,7.09-5,9.77C22.55,81.8,23.49,79,23.32,75.24Z"/><path class="a9b770d0-0522-43fa-acf9-7c653d19e072" d="M42.1,74.39h-1c-.08,1.53-.38,5.4,1.58,7.8A24.27,24.27,0,0,1,42.1,74.39Z"/><path class="a9b770d0-0522-43fa-acf9-7c653d19e072" d="M39.58,75h-1c.05,3.61,0,7,4.88,10.24A12.4,12.4,0,0,1,39.58,75Z"/><path class="a9b770d0-0522-43fa-acf9-7c653d19e072" d="M38,75.24h-1c-.08,3.89.19,7.09,5,9.77C38.72,81.8,37.78,79,38,75.24Z"/><path class="a9b770d0-0522-43fa-acf9-7c653d19e072" d="M28.87,84.42h.74v-.58h-.74v-.6h.74V79H31v6H28.87v-.6ZM31,79c.46-.41.83-.78,1.28-1.19a.63.63,0,0,0,.25-.26c0-.41,0-.58,0-1,.08-.25-.27-.57-.51-.49l-3.47,0a.38.38,0,0,0-.42.37c0,.4,0,.72,0,1.13a.59.59,0,0,0,.26.26c.44.41.81.78,1.26,1.19C30.06,79,30.5,79,31,79Z"/><path class="a3623e5c-b409-44df-9ec0-a164fe759d9f" d="M30.31,78.25a.52.52,0,0,0,.26-.08,5.17,5.17,0,0,0,1.08-1.06c.1-.17.13-.53-.14-.55h-2.4c-.26,0-.27.37-.13.55a4.89,4.89,0,0,0,1,1A.57.57,0,0,0,30.31,78.25Z"/><path class="a00fdbc0-b815-4d5c-86e5-158b7b1b96e6" d="M17.23,86.47a.26.26,0,0,1-.26-.26.25.25,0,0,1,.26-.25l26.51,0h0a.26.26,0,1,1,0,.52Z"/><path class="a9b770d0-0522-43fa-acf9-7c653d19e072" d="M16.65,56.18c1.56-.13,3-.15,4.6-.27.27,1-.91,1.22-1.34,1.34A5.14,5.14,0,0,1,15.11,60c-2.72,0-3.22-.89-4.44-2.72,1-.34,1-.14,2.06-.48,1.2,3.16,3.49,2.23,5.06.49C17.33,57.17,16.42,57.09,16.65,56.18Z"/><path class="beb359ee-924c-4eeb-9358-a6c65f0fea3c" d="M15.11,60.22c-2.77,0-3.4-.95-4.54-2.67l-.3-.45.32-.1a4.69,4.69,0,0,1,1.07-.25,5.31,5.31,0,0,0,1-.23l.23-.08.09.23c.42,1.12,1,1.75,1.72,1.89a3.19,3.19,0,0,0,2.59-1.14,1.31,1.31,0,0,1-.79-.48,1,1,0,0,1-.09-.82l0-.18h.19c.83-.07,1.65-.11,2.45-.15s1.42-.07,2.15-.13l.22,0,.05.21a1.12,1.12,0,0,1-.09.89,2.05,2.05,0,0,1-1.3.74h0A5.39,5.39,0,0,1,15.11,60.22Zm-4-2.83c1.08,1.63,1.59,2.31,4,2.31a4.88,4.88,0,0,0,4.57-2.57l.05-.09.11,0L20,57c.3-.08.81-.2,1-.5a.55.55,0,0,0,.08-.29c-.66,0-1.31.08-1.94.11s-1.47.07-2.23.13a.43.43,0,0,0,.05.24c.14.21.54.28.81.32l.56.1-.31.35c-1.12,1.23-2.36,1.83-3.38,1.64a2.93,2.93,0,0,1-2-2,7.31,7.31,0,0,1-.84.18A3.76,3.76,0,0,0,11.08,57.39Z"/><path class="a9b770d0-0522-43fa-acf9-7c653d19e072" d="M17,45.41c.85-.7,3-.56,3.82-.13a1.06,1.06,0,0,1-.06,2,14.33,14.33,0,0,1,.06,7.93c.25.19.36.37.39,1,.1,1.29-4.25,1.61-4.53.22a1.05,1.05,0,0,1,.35-1.19c-.9-2.43-.65-4.8,0-7.82C16.53,47.34,16.19,46.11,17,45.41Z"/><path class="beb359ee-924c-4eeb-9358-a6c65f0fea3c" d="M18.77,57.54c-1.13,0-2.16-.34-2.31-1.11a1.25,1.25,0,0,1,.3-1.29h0c-.83-2.36-.62-4.67,0-7.59a1,1,0,0,1-.43-.57,1.62,1.62,0,0,1,.52-1.76c.95-.79,3.3-.6,4.1-.16a1.42,1.42,0,0,1,.79,1.25,1.28,1.28,0,0,1-.67,1.08,14.74,14.74,0,0,1,.05,7.72,1.39,1.39,0,0,1,.36,1c.05.66-.7,1.18-1.95,1.35A7,7,0,0,1,18.77,57.54Zm.33-12.37a3.44,3.44,0,0,0-1.9.44h0a1.12,1.12,0,0,0-.37,1.2c.06.17.17.3.26.3h.31l-.07.3c-.67,3-.9,5.33,0,7.68l.05.13-.09.12-.11.13c-.2.22-.29.32-.19.85s1.4.8,2.52.65c.9-.12,1.53-.46,1.51-.8,0-.57-.13-.66-.3-.79l-.14-.11.05-.16a14.08,14.08,0,0,0-.06-7.78l-.07-.21.2-.1a.89.89,0,0,0,.58-.74,1,1,0,0,0-.53-.79A3.58,3.58,0,0,0,19.1,45.17Z"/><path class="a9b770d0-0522-43fa-acf9-7c653d19e072" d="M23.25,39.52c-2.67,0-3.88,3.58-5.1,5.49.13.59,1.61.88,2.37.16.13-1.9,1-4,2.62-4.43a2.82,2.82,0,0,1,1.24-.12,5.63,5.63,0,0,0,2.23.19c.08,0,.12-.1.13-.1l0-.53c0-.21,0-.42,0-.62a.57.57,0,0,0-.33-.14C25.82,39.44,23.73,39.52,23.25,39.52Z"/><path class="beb359ee-924c-4eeb-9358-a6c65f0fea3c" d="M19.34,45.85a2.15,2.15,0,0,1-.64-.09,1.06,1.06,0,0,1-.8-.69l0-.11.05-.09c.25-.39.5-.85.77-1.34,1-1.88,2.28-4.23,4.55-4.27h0c.49,0,2.6-.08,3.14-.1h0a.78.78,0,0,1,.52.22l.07.08v.1c0,.11,0,.22,0,.32s0,.2,0,.29L27,41h-.17a.4.4,0,0,1-.17.1,4.34,4.34,0,0,1-1.9-.1l-.44-.09a2.48,2.48,0,0,0-1.12.12c-1.51.44-2.32,2.49-2.44,4.2v.09l-.07.07A2,2,0,0,1,19.34,45.85Zm-.9-.82a.89.89,0,0,0,.4.24A1.65,1.65,0,0,0,20.27,45c.16-1.91,1.08-4,2.8-4.55a3.06,3.06,0,0,1,1.35-.12,3.73,3.73,0,0,1,.46.09,4.16,4.16,0,0,0,1.59.12l0-.4c0-.12,0-.23,0-.34a.76.76,0,0,0,0-.15H26.4c-.53,0-2.65.09-3.15.09-2,0-3.1,2.15-4.1,4C18.91,44.23,18.67,44.65,18.44,45Z"/><path class="a9b770d0-0522-43fa-acf9-7c653d19e072" d="M10.33,54.32c.59,0,1.44,0,2,0a3.56,3.56,0,0,0,.76,2.28c.25.27.87.79.22,1.07a15.12,15.12,0,0,1-2.78.49s-.15,0-.15-.11C10.41,56.84,10.32,55.5,10.33,54.32Z"/><path class="beb359ee-924c-4eeb-9358-a6c65f0fea3c" d="M10.58,58.38h0a.38.38,0,0,1-.41-.37c0-.54,0-1.12,0-1.69s0-1.37,0-2v-.27h.27c.3,0,.69,0,1.07,0s.66,0,.94,0h.27l0,.27a3.18,3.18,0,0,0,.71,2.09l.1.11c.22.23.53.56.45.91a.62.62,0,0,1-.43.45h0a15.81,15.81,0,0,1-2.83.51Zm0-3.8c0,.56,0,1.15,0,1.72s0,1.05,0,1.55a15,15,0,0,0,2.59-.46c.09,0,.12-.08.12-.09s-.24-.36-.32-.45a.71.71,0,0,1-.12-.13,3.76,3.76,0,0,1-.83-2.18l-.66,0Z"/><path class="a9b770d0-0522-43fa-acf9-7c653d19e072" d="M8.35,50.33A6.89,6.89,0,0,1,14,50.27c.08,1.69-.32,4.64-2.78,4.65S8.36,52,8.35,50.33Z"/><path class="beb359ee-924c-4eeb-9358-a6c65f0fea3c" d="M11.22,55.18a2.55,2.55,0,0,1-1.85-.73c-1.09-1.08-1.27-3-1.28-4.12v-.17l.15-.07A7.17,7.17,0,0,1,14.12,50l.16.06v.16c0,.66.05,2.9-1.11,4.13a2.62,2.62,0,0,1-1.92.8ZM8.61,50.49c0,.89.19,2.68,1.12,3.59a2,2,0,0,0,1.52.58A2,2,0,0,0,12.79,54a5.37,5.37,0,0,0,1-3.57A6.57,6.57,0,0,0,8.61,50.49Z"/><path class="a9b770d0-0522-43fa-acf9-7c653d19e072" d="M11.14,50h0a4.72,4.72,0,0,1,2.49.45c.14.44.71.41,1,.12a.6.6,0,0,0-.11-.94,3.52,3.52,0,0,0-2.66-1.76c1-.42.57-1.68-.71-1.68s-1.78,1.26-.73,1.68a3.51,3.51,0,0,0-2.67,1.76.61.61,0,0,0-.11.94c.29.29.87.32,1-.12A4.73,4.73,0,0,1,11.14,50Z"/><path class="beb359ee-924c-4eeb-9358-a6c65f0fea3c" d="M8.16,51a1,1,0,0,1-.7-.29A.9.9,0,0,1,7.22,50a.79.79,0,0,1,.34-.56,3.7,3.7,0,0,1,2.23-1.72A1,1,0,0,1,9.61,47a1.45,1.45,0,0,1,1.54-1,1.45,1.45,0,0,1,1.52,1,.91.91,0,0,1-.19.77,3.73,3.73,0,0,1,2.23,1.71.79.79,0,0,1,.34.56.89.89,0,0,1-.24.75,1,1,0,0,1-.9.27.72.72,0,0,1-.49-.41,5.2,5.2,0,0,0-2.28-.35,5.25,5.25,0,0,0-2.29.35.67.67,0,0,1-.48.4A.66.66,0,0,1,8.16,51Zm3-1.3h0a4.77,4.77,0,0,1,2.64.51l.06,0,0,.07a.22.22,0,0,0,.16.15.52.52,0,0,0,.42-.13.41.41,0,0,0,.09-.32.28.28,0,0,0-.15-.22l-.06,0,0-.06a3.23,3.23,0,0,0-2.47-1.63l-.69-.08-.69.08A3.23,3.23,0,0,0,8,49.76l0,.06-.06,0a.28.28,0,0,0-.15.23.37.37,0,0,0,.09.31.53.53,0,0,0,.43.13.2.2,0,0,0,.14-.15l0-.07.07,0a4.78,4.78,0,0,1,2.65-.51Zm0-3.29c-.6,0-1,.31-1,.62s.1.44.4.56l.62.26.63-.26c.29-.12.44-.33.39-.57A1,1,0,0,0,11.15,46.45Z"/><path class="a9b770d0-0522-43fa-acf9-7c653d19e072" d="M52.86,50.65c0,.29-.31.41-.53.43,0,3,0,5,.06,8-8.57.67-9.69-2.77-18.11-1.65V39.12c5.49.06,9,1.79,10.92,6.58.07.19.8,0,.77.48s-.86,1-1.55,1.18v4.28h1v-.53c-.28,0-.66-.21-.67-.41,0-.46.51-.31.7-.75.57-1.22,1-3.29,3.36-3.29S51.69,48.93,52.1,50C52.43,50.4,52.81,50.37,52.86,50.65Z"/><path class="b3b82268-2c7e-467a-aeda-24e5b1d74254" d="M47.51,52.48h2.62V49.93H47.51Z"/><rect class="a00fdbc0-b815-4d5c-86e5-158b7b1b96e6" x="48.61" y="44.72" width="0.51" height="2.02"/><rect class="a00fdbc0-b815-4d5c-86e5-158b7b1b96e6" x="47.86" y="45.38" width="2.02" height="0.51"/><path class="a9b770d0-0522-43fa-acf9-7c653d19e072" d="M48.87,44.19a.22.22,0,0,1,.2.21s0,0,0,.06a.19.19,0,0,1,.19.2.2.2,0,0,1-.2.21.18.18,0,0,1-.18-.15.22.22,0,0,1-.2.15.2.2,0,0,1-.2-.21.19.19,0,0,1,.19-.2V44.4A.21.21,0,0,1,48.87,44.19Z"/><path class="a00fdbc0-b815-4d5c-86e5-158b7b1b96e6" d="M49.05,45a.33.33,0,0,0-.38,0,.32.32,0,0,1-.32-.33.3.3,0,0,1,.19-.3.33.33,0,0,1,.33-.29.33.33,0,0,1,.32.29.33.33,0,0,1,.18.3A.32.32,0,0,1,49.05,45Zm-.1-.41,0,.11a.08.08,0,0,0,.07.05.08.08,0,0,0,.08-.08.07.07,0,0,0-.07-.08Zm-.29,0a.07.07,0,0,0-.07.08.08.08,0,0,0,.08.08.08.08,0,0,0,.08-.07l.14-.32,0,.17v-.06s0-.06,0-.07a.09.09,0,0,0-.08-.07.07.07,0,0,0-.08.08v.18Z"/><path class="a9b770d0-0522-43fa-acf9-7c653d19e072" d="M50.25,45.64a.2.2,0,0,1-.21.2h0a.21.21,0,0,1-.21.19.19.19,0,0,1-.2-.2.2.2,0,0,1,.13-.19.2.2,0,0,1-.13-.2.19.19,0,0,1,.2-.19.22.22,0,0,1,.21.19h0A.22.22,0,0,1,50.25,45.64Z"/><path class="a00fdbc0-b815-4d5c-86e5-158b7b1b96e6" d="M49.79,46.16a.33.33,0,0,1-.33-.33.42.42,0,0,1,.06-.19.39.39,0,0,1-.06-.2.32.32,0,0,1,.33-.31.31.31,0,0,1,.29.18.33.33,0,0,1,.29.33.32.32,0,0,1-.28.32A.33.33,0,0,1,49.79,46.16Zm.14-.59.16,0-.32.14a.08.08,0,0,0-.06.08.07.07,0,0,0,.08.08.08.08,0,0,0,.08-.08l0-.11H50a.09.09,0,0,0,.09-.08.09.09,0,0,0-.07-.08h-.13Zm-.14-.2a.07.07,0,0,0-.08.07c0,.07,0,.07,0,.08l.14,0,0-.09A.09.09,0,0,0,49.79,45.37Z"/><path class="a9b770d0-0522-43fa-acf9-7c653d19e072" d="M47.34,45.64a.19.19,0,0,0,.2.2h.05a.2.2,0,0,0,.21.19.19.19,0,0,0,.2-.2.2.2,0,0,0-.13-.19.2.2,0,0,0,.13-.2.19.19,0,0,0-.2-.19.21.21,0,0,0-.21.19h-.05A.2.2,0,0,0,47.34,45.64Z"/><path class="a00fdbc0-b815-4d5c-86e5-158b7b1b96e6" d="M47.8,46.16a.33.33,0,0,1-.31-.2.31.31,0,0,1-.27-.32.33.33,0,0,1,.28-.33.32.32,0,0,1,.3-.18.31.31,0,0,1,.32.31.32.32,0,0,1-.06.2.33.33,0,0,1,.06.19A.32.32,0,0,1,47.8,46.16Zm-.27-.6a.08.08,0,0,0-.07.08.07.07,0,0,0,.08.08h.18v.12a.07.07,0,0,0,.08.07.07.07,0,0,0,.08-.08.08.08,0,0,0-.06-.08l-.32-.14.16,0h-.13Zm.27-.19a.08.08,0,0,0-.08.07v.11l.11,0s.05,0,.05-.08A.07.07,0,0,0,47.8,45.37Z"/><path class="b3b82268-2c7e-467a-aeda-24e5b1d74254" d="M35,40.09a17.85,17.85,0,0,1,.26,6H37C37,43.12,36.24,41.13,35,40.09Z"/><path class="b3b82268-2c7e-467a-aeda-24e5b1d74254" d="M36.48,40.24C38,41.94,40,44.3,40,46.08h1.76C41.71,43.12,37.89,40.15,36.48,40.24Z"/><path class="a00fdbc0-b815-4d5c-86e5-158b7b1b96e6" d="M50.19,61.16a32.86,32.86,0,0,1-6.76-1c-3.94-.85-7.65-1.66-10.58,0A.61.61,0,0,1,32,60a.62.62,0,0,1,.23-.84c3.34-1.9,7.46-1,11.45-.15,3.63.79,7.38,1.6,10.31.19a.62.62,0,0,1,.53,1.11A9.75,9.75,0,0,1,50.19,61.16Z"/><path class="a00fdbc0-b815-4d5c-86e5-158b7b1b96e6" d="M50.19,62.59a32.86,32.86,0,0,1-6.76-1c-3.93-.85-7.65-1.66-10.58,0a.61.61,0,0,1-.84-.23.62.62,0,0,1,.23-.84c3.34-1.9,7.46-1,11.45-.15,3.63.79,7.38,1.6,10.31.19a.62.62,0,0,1,.53,1.11A9.75,9.75,0,0,1,50.19,62.59Z"/><path class="b3b82268-2c7e-467a-aeda-24e5b1d74254" d="M51.21,85.33V84.07l0-.44,0,0v-.74l1.46.41-.36.64-.74-.23,0,1.64a.81.81,0,0,1-.31,0Zm0-4.31v-.8l.12.1a3.64,3.64,0,0,0,.8.43,2.9,2.9,0,0,0,.63.18,4.14,4.14,0,0,0,.6.09l.36-.94-2.51-.36V79l2.74.37.16-.41.87.94-.91.16-.44,1.17.55.74-1.25.13.17-.43A3.11,3.11,0,0,1,52,81.5,3.22,3.22,0,0,1,51.21,81Zm0-2v.7l-.56-.07a2.75,2.75,0,0,0,.56.57V81l-.3-.29a2.72,2.72,0,0,1-.59-1.11l-.56-.06.27-.7,1.18.16Zm0,3.85v.74l-2-.58v-.71l2,.55Zm0,1.2,0,.51a3.22,3.22,0,0,1-.49-.11,3.9,3.9,0,0,1-.44-.19,2.94,2.94,0,0,1-.67-.53,2.47,2.47,0,0,1-.32-.38v.87a3.23,3.23,0,0,0,1,.78,2.42,2.42,0,0,0,.66.27,1.42,1.42,0,0,0,.34,0V84.07Zm-2,4.6v-.58l.28.26Zm0-6.35V83L49,82.94a3.58,3.58,0,0,0,.29.43v.87l-.12-.16a1.75,1.75,0,0,1-.3-.48V82.21l.42.11Zm0,5.77v.58l-.21.21-.21-.19v-1l.42.4Zm-.42-1.65V86A1.24,1.24,0,0,1,48.84,86.44Zm0-4.23V83.6a1.83,1.83,0,0,1-.19-.71l-.41-.11v-.21l.25-.46.35.1Zm0,3.76v.47a1.2,1.2,0,0,1-.06.24,3.05,3.05,0,0,1-.33.65l.39.36v1l-.6-.57V87.05a.87.87,0,0,0,.09-.62,1.9,1.9,0,0,0-.09-.36V84.88a2.19,2.19,0,0,1,.55.9A.77.77,0,0,1,48.84,86Zm-.6-3.4v.21l-.11,0,.11-.19Zm0,2.31v1.19a1.33,1.33,0,0,0-.38-.56l-.33-.31v-.86l.06-.08.43.41.22.21Zm0,2.17v1.07l-.71-.64v-1l.67.62A.07.07,0,0,0,48.24,87.05Zm-.71-2.71v.86l-.17-.15-.63.67.8.76v1l-1.27-1.2v-.57l1.27-1.37Zm-1.27,7.18v-.59l.29.35Zm0-5.81v.57L46,86l.29-.3Zm0,5.22v.59l-.28.22-2.39-2.95v-.53L45.2,87l.37,1-.31-.11a.65.65,0,0,0-.55.06l-.55.45,2.1,2.6Zm-2.67,2.16a3.16,3.16,0,0,0,.26-1.23,2.12,2.12,0,0,0-.26-1Zm0-4.83v.53l-.22-.27v-.09l.22-.17Zm0,2.55v2.28a1.73,1.73,0,0,1-.1.24l0,0h-.08v-.82h0a1.26,1.26,0,0,0,0-.58.11.11,0,0,0,0-.06V90.48a2.75,2.75,0,0,1,.19.28A.09.09,0,0,1,43.59,90.81Zm-.22-2.38v.09l0-.06,0,0Zm0,2v1.41a2,2,0,0,0-.18-.48,2.18,2.18,0,0,0-.77-.77l0,0v-.84l.17.07a2.21,2.21,0,0,1,.82.64Zm0,2.06v.82a2.33,2.33,0,0,1-1-.17V92.3a1.79,1.79,0,0,0,.91.29Zm-1-2.77v.84a1.76,1.76,0,0,0-.89-.27l-.1.06a1.22,1.22,0,0,0,0,.57,1.4,1.4,0,0,0,.19.53,2.24,2.24,0,0,0,.77.79h0v.89l-.18-.07a2.32,2.32,0,0,1-1-.92,2.21,2.21,0,0,1-.28-1.11,3.61,3.61,0,0,1,.33-1.47l0,0a2.47,2.47,0,0,1,1.1.17Zm-7.24,6.54V96l.62-.11-.12-.66a1.51,1.51,0,0,0-.5-.9h0v-.53h0a1.36,1.36,0,0,1,.72.48,2.41,2.41,0,0,1,.52,1.24l.1.56-1.39.24Zm0-3.87V92l.69-.12-.25.86a.77.77,0,0,0-.15-.18.48.48,0,0,0-.29-.15Zm4-.72a4.67,4.67,0,0,1-.62-.06,1,1,0,0,0-.48,0l-.08,0c-.14.06-.21.19-.21.41a1.87,1.87,0,0,0,.17.72l0,.06,1.6-.65v.79a.58.58,0,0,0-.46-.23,1,1,0,0,0-.24.06l-.79.32a2.45,2.45,0,0,0,.87.7,2.6,2.6,0,0,0,1.42.18L40,95a2.4,2.4,0,0,1-1.59-.39,2.53,2.53,0,0,1-.9-1.15,2.38,2.38,0,0,1-.14-1.4,1.19,1.19,0,0,1,.73-1,1,1,0,0,1,.28,0,.85.85,0,0,0,.4,0,1.19,1.19,0,0,0,.39-.25Zm-4,.31v.41H35l-.73.14.19,1.14a2.65,2.65,0,0,1,.67,0v.53a.79.79,0,0,0-.61-.27l.35,2,.26,0v.33l-.92.16-.73-4.15L35.14,92ZM25.62,96V95.6l.46-.09,0-2.38a4.37,4.37,0,0,0-.49.61V93a2.34,2.34,0,0,1,.44-.24v-.53l.72.17,0,4.33-.72-.17v-.77l-.48.14Zm3.94-1.45a.71.71,0,0,1,.26-.55A.8.8,0,0,1,31,94a.72.72,0,0,1,.22.57.78.78,0,0,1-.26.57.73.73,0,0,1-.57.21.79.79,0,0,1-.57-.25A.77.77,0,0,1,29.56,94.52ZM25.62,93v.7l-.12.19a2.75,2.75,0,0,0-.31.8,1.72,1.72,0,0,0-.08.48,4.6,4.6,0,0,0,0,.49l.47-.1V96l-1.11.27a1.56,1.56,0,0,1-.13-.62,2.59,2.59,0,0,1,.07-.72,3.24,3.24,0,0,1,.6-1.29,2.8,2.8,0,0,1,.57-.57ZM21.7,95.36V93a1.58,1.58,0,0,1,.28-.3,3.16,3.16,0,0,1,1.13-.77l0-.52.7.24L23.43,96l-.7-.24.39-3.47a3.13,3.13,0,0,0-.65.66,3.78,3.78,0,0,0-.41.8,4.78,4.78,0,0,0-.2,1.7l-.16-.06Zm0-3.93.12,0a.62.62,0,0,1,.42.07l.06,0-.44-.85-.16.18Zm0-.58v.58a1.09,1.09,0,0,0-.33.24l-1.71,1.88a.91.91,0,0,0-.1.13.46.46,0,0,0-.07.1.53.53,0,0,0-.06.32.83.83,0,0,0,.15.4l-.65-.35v-.24l.91-1,.1-3,.68.36-.12,1.9,1.2-1.33Zm0,2.16a2.93,2.93,0,0,0-.46.85,2.15,2.15,0,0,0-.13.66,2.06,2.06,0,0,0,.06.66l.53.18V93ZM18.93,89.7v-.47l.15.11Zm0-.47v.47l-1.51,3.64-.6-.43,1.38-3.2a2.73,2.73,0,0,0-.82.45,2.8,2.8,0,0,0-.61.63,4,4,0,0,0-.39.64V90.19A5,5,0,0,1,17,89.8a3.37,3.37,0,0,1,1.31-.4l.2-.49.45.32Zm0,4.68v.24l-.15-.08.15-.16Zm-2.55-4.8.92-1-.52-.5-.4.4Zm0-1v1l-2,2.08-.52-.5,1.91-2L14.26,89l-.76.77v-1l2.09-2.17.53.51-1.48,1.54,1.49-.23.25-.27Zm0,2.13a3.57,3.57,0,0,0-.45.5,2.31,2.31,0,0,0-.32.6,2,2,0,0,0-.13.65l.59.43a5.24,5.24,0,0,1,.25-.79.47.47,0,0,0,.06-.15V90.19ZM13.5,86.28V85h.05l.3-.45.49.57Zm-1.93-6,.27.6-.27.12v-.72ZM13.5,85v1.29l-1.69,2.36-.24-.29v-.59l1.83-2.49a2.69,2.69,0,0,0-.89.26,3.15,3.15,0,0,0-.76.48l-.18.17v-.86a4.19,4.19,0,0,1,.62-.24A3.26,3.26,0,0,1,13.5,85Zm0,3.69v1l-.3.33-.53-.51.83-.86Zm-1.93-4.55v-1L12,82.8l-.38,0v-.44a2.08,2.08,0,0,1,.57.15l.36-.37.4.62Zm-.72-5.43.72,1.62V81l-1.34.6v-.79l1-.43-.41-.89-.55.24V79l.62-.27Zm.72,3.68v.44a3.71,3.71,0,0,0-.63.12,2.7,2.7,0,0,0-.71.29v-.7a4.29,4.29,0,0,1,.62-.14,2.49,2.49,0,0,1,.72,0Zm0,.78-1.33,1.3h0v1l1.34-1.36v-1Zm0,2.16v.86a4.13,4.13,0,0,0-.42.49,5.53,5.53,0,0,0-.42.71l-.48-.55A2.3,2.3,0,0,1,11,85.72a3,3,0,0,1,.6-.4Zm0,2.44v.59l-.24-.26Zm-1.34-6.12L8,82.64,7.7,82l2.53-1.12v.79Zm0-1.87V79L7,80.4l.3.68,2.93-1.31Zm0,2.76a4.22,4.22,0,0,0-.71.34,2.6,2.6,0,0,0-.56.46,1.49,1.49,0,0,0-.34.55l1.4.83-.55.54.38.61.38-.37v-1l-.79-.52a2.41,2.41,0,0,1,.33-.37,2.28,2.28,0,0,1,.38-.3l.08,0Z"/><path class="a9b770d0-0522-43fa-acf9-7c653d19e072" d="M33.51,90.34v-.7a.45.45,0,0,0,.16.12h.07a1.2,1.2,0,0,0,.2-.37A1.67,1.67,0,0,0,34,89a1.7,1.7,0,0,0-.19-.79,1.14,1.14,0,0,0-.3-.44V87a1.78,1.78,0,0,1,.64.64,1.9,1.9,0,0,1,.29,1,2,2,0,0,1-.21.84,2.67,2.67,0,0,1-.7.83Zm0-3.31v.69a.79.79,0,0,0-.15-.12h-.08a1,1,0,0,0-.19.38,1.28,1.28,0,0,0-.07.42,1.75,1.75,0,0,0,.19.81,1.42,1.42,0,0,0,.3.43v.7h0a1.83,1.83,0,0,1-.66-.64,2,2,0,0,1-.28-1,1.9,1.9,0,0,1,.2-.85,2.7,2.7,0,0,1,.7-.83h0Zm-4.45,3.31v-.4a.43.43,0,0,0,.2.07h0a.59.59,0,0,0,.19-.2.38.38,0,0,0,.07-.22.55.55,0,0,0-.12-.31,1.12,1.12,0,0,0-.32-.29l-.06,0v-.63h.11a.24.24,0,0,0,.18-.07.33.33,0,0,0,.09-.23.48.48,0,0,0-.21-.37.62.62,0,0,0-.17-.11v-.46a1.24,1.24,0,0,1,.59.27.63.63,0,0,1,.22.46.88.88,0,0,1-.06.27,1,1,0,0,1-.21.26l-.16.18a1.28,1.28,0,0,1,.45.4.77.77,0,0,1,.14.45.84.84,0,0,1-.26.59,1.37,1.37,0,0,1-.7.35Zm1.26-.83.5-.16a.73.73,0,0,0,.2.55.5.5,0,0,0,.34.17h0a.57.57,0,0,0,.27-.2.55.55,0,0,0,.08-.31,1,1,0,0,0-.2-.61.83.83,0,0,0-.47-.37l-.13.18-.26-.18.85-1.1H31a.29.29,0,0,0-.23.1,1.53,1.53,0,0,0-.14.24l-.25-.66h1.79l-.85,1.11a.3.3,0,0,1,.16,0,.64.64,0,0,1,.53.31,1.14,1.14,0,0,1,.22.7,1,1,0,0,1-.21.64,1.26,1.26,0,0,1-.72.45h-.09a.82.82,0,0,1-.6-.27A1.08,1.08,0,0,1,30.32,89.51Zm-3.17-2.36h.35v3.18H27V87.56l-.33.23h-.29l.74-.64Zm1.91,0v.46a.43.43,0,0,0-.24-.06c-.05,0-.09,0-.11,0l-.08,0a.2.2,0,0,0-.05.09s0,.06,0,.11a.55.55,0,0,0,.19.38.65.65,0,0,0,.3.18V89l-.12-.06a.54.54,0,0,0-.28.15.28.28,0,0,0-.08.21.72.72,0,0,0,.27.5l.21.17v.4a1.07,1.07,0,0,1-.63-.33.86.86,0,0,1-.25-.57A.75.75,0,0,1,28.3,89a1.11,1.11,0,0,1,.37-.34l-.22-.23a.63.63,0,0,1-.21-.22.82.82,0,0,1-.06-.27.84.84,0,0,1,.25-.56.92.92,0,0,1,.62-.3Z"/><path class="a00fdbc0-b815-4d5c-86e5-158b7b1b96e6" d="M29.07,90.44h0a1.08,1.08,0,0,1-.69-.36.91.91,0,0,1-.28-.64.85.85,0,0,1,.13-.47,1.22,1.22,0,0,1,.3-.3l-.13-.13a.75.75,0,0,1-.23-.24.85.85,0,0,1-.07-.33.91.91,0,0,1,.28-.63A1,1,0,0,1,29,87h0a1.35,1.35,0,0,1,.65.29.74.74,0,0,1,.25.54.78.78,0,0,1-.07.31h0a1.08,1.08,0,0,1-.23.28l-.07.08a1.25,1.25,0,0,1,.38.38.93.93,0,0,1,.16.5,1,1,0,0,1-.29.66,1.48,1.48,0,0,1-.76.38Zm0-3.22a.79.79,0,0,0-.53.26.69.69,0,0,0-.22.49.5.5,0,0,0,.05.23.56.56,0,0,0,.17.18h0l.32.32-.11.07a.85.85,0,0,0-.34.3.65.65,0,0,0-.1.36.73.73,0,0,0,.22.5.89.89,0,0,0,.56.29,1.22,1.22,0,0,0,.63-.32.74.74,0,0,0,.23-.51A.65.65,0,0,0,29.8,89a1.15,1.15,0,0,0-.41-.37l-.11-.07.24-.27a.83.83,0,0,0,.19-.23.68.68,0,0,0,.05-.23.49.49,0,0,0-.18-.38A1,1,0,0,0,29,87.22Zm4.53,3.22h-.12a2,2,0,0,1-.7-.67,2,2,0,0,1-.08-2A2.68,2.68,0,0,1,33.4,87l0,0h.12a1.63,1.63,0,0,1,.7.68,1.93,1.93,0,0,1,.08,1.93,2.79,2.79,0,0,1-.72.87Zm-.08-3.3a2.28,2.28,0,0,0-.63.77,1.72,1.72,0,0,0-.2.8,1.82,1.82,0,0,0,.27.94,1.66,1.66,0,0,0,.58.57,2.63,2.63,0,0,0,.63-.76,1.77,1.77,0,0,0-.08-1.74A1.67,1.67,0,0,0,33.49,87.14Zm-2.18,3.3h-.1a1,1,0,0,1-.67-.29,1.19,1.19,0,0,1-.32-.63l0-.08.72-.23v.14a.63.63,0,0,0,.17.48.42.42,0,0,0,.27.14h0a.37.37,0,0,0,.2-.16.41.41,0,0,0,.07-.25,1,1,0,0,0-.53-.86l-.15.21-.42-.31.78-1H31a.18.18,0,0,0-.15.07,1,1,0,0,0-.12.22l-.1.23-.4-1h2.16l-.84,1.08a.76.76,0,0,1,.54.35,1.25,1.25,0,0,1,.25.77,1.1,1.1,0,0,1-.24.7,1.31,1.31,0,0,1-.78.48Zm-.87-.86a.92.92,0,0,0,.25.42.68.68,0,0,0,.52.23h.07a1.09,1.09,0,0,0,.65-.4.85.85,0,0,0,.2-.57,1,1,0,0,0-.21-.65.51.51,0,0,0-.44-.26h-.11l-.25.12a1,1,0,0,1,.52.42,1.09,1.09,0,0,1,.22.66.62.62,0,0,1-.42.61h-.08A.57.57,0,0,1,31,90a.78.78,0,0,1-.23-.49Zm.4-1,.08.06,0-.06h0l.08-.1h0L32,87.27H30.53l.12.3,0,0a.41.41,0,0,1,.32-.15h.75ZM27.6,90.43h-.68V87.76l-.18.13h-.6l1-.84h.49Zm-.47-.21h.26v-3h-.2l-.4.35.34-.24Zm2.2-.1h-.07a1.08,1.08,0,0,1-.79-.85.36.36,0,0,1,.12-.28.58.58,0,0,1,.32-.18h0l.21.1a1.17,1.17,0,0,1,.37.32.71.71,0,0,1,.14.37.51.51,0,0,1-.09.28,1,1,0,0,1-.22.23Zm-.4-1.1a.48.48,0,0,0-.19.11.2.2,0,0,0-.06.14.63.63,0,0,0,.25.43c.21.2.32.21.33.21h0a.44.44,0,0,0,.13-.15.32.32,0,0,0,.06-.17.58.58,0,0,0-.1-.25,1,1,0,0,0-.3-.26Zm4.85.84h-.17a1.38,1.38,0,0,1-.5-.6,1.87,1.87,0,0,1-.2-.85A1.47,1.47,0,0,1,33,88a1.11,1.11,0,0,1,.21-.42l0,0h.17l0,0a1.33,1.33,0,0,1,.48.61,1.68,1.68,0,0,1,.21.83,1.61,1.61,0,0,1-.07.46,1.27,1.27,0,0,1-.22.42Zm-.45-2.16a1,1,0,0,0-.14.31,1.11,1.11,0,0,0-.07.39,1.61,1.61,0,0,0,.18.76,1,1,0,0,0,.39.49.93.93,0,0,0,.15-.3,1.44,1.44,0,0,0,.06-.4,1.56,1.56,0,0,0-.18-.74,1.25,1.25,0,0,0-.39-.51Zm-4.16.76a.66.66,0,0,1-.48-.23.64.64,0,0,1-.23-.45s0-.06,0-.09v0l0,0a.24.24,0,0,1,.06-.11l0,0,.08,0a.27.27,0,0,1,.17,0,.77.77,0,0,1,.47.19.55.55,0,0,1,.26.45.46.46,0,0,1-.12.3A.38.38,0,0,1,29.17,88.46Zm-.49-.77v0a.07.07,0,0,0,0,0,.56.56,0,0,0,.5.47.12.12,0,0,0,.1,0,.25.25,0,0,0,.07-.16.39.39,0,0,0-.17-.29.61.61,0,0,0-.35-.14h-.05l-.07,0,0,0Z"/><path class="a9b770d0-0522-43fa-acf9-7c653d19e072" d="M2.53,4.54,9,2.58l5.2,5.28a66.33,66.33,0,0,1,9.79-1L23.6.33,38.21.39l-.32,6.32a44.59,44.59,0,0,1,9,.94L52.1,2.28l6.34,2.07c-1.61,6.6-3.21,13.45-4.82,20-3.61,4.3-36.39,4.77-44.21.54Z"/><path class="b1646ed3-2e78-4ebc-9270-27bc8739bf26" d="M31.48,28.22c-8.06,0-18.14-.77-22.23-3a.35.35,0,0,1-.16-.18L2.21,4.65a.33.33,0,0,1,0-.26.37.37,0,0,1,.2-.17L8.82,2.28l.06,0a.33.33,0,0,1,.33.09L14.3,7.51a66.41,66.41,0,0,1,9.32-1L23.27.35A.3.3,0,0,1,23.36.1.35.35,0,0,1,23.6,0h0L38.21.06a.35.35,0,0,1,.24.1.3.3,0,0,1,.09.25l-.3,6a44.93,44.93,0,0,1,8.57.9l5-5.23A.37.37,0,0,1,52.21,2L58.54,4a.33.33,0,0,1,.22.4c-.8,3.3-1.62,6.72-2.41,10s-1.6,6.73-2.41,10a.24.24,0,0,1-.07.13C51.8,27.09,41.38,28.1,33.1,28.2ZM9.68,24.71c3.59,1.86,12.74,3,23.41,2.83,10.45-.14,18.54-1.46,20.22-3.3.8-3.28,1.61-6.66,2.39-9.94S57.26,7.78,58,4.57L52.2,2.66l-5,5.22a.34.34,0,0,1-.32.09,45.1,45.1,0,0,0-9-.93.32.32,0,0,1-.24-.11.34.34,0,0,1-.09-.24l.31-6L24,.67l.36,6.16a.38.38,0,0,1-.09.25.34.34,0,0,1-.24.11,64,64,0,0,0-9.74,1A.33.33,0,0,1,14,8.1L8.88,3c-2,.59-4,1.19-5.92,1.8Z"/><path class="b1646ed3-2e78-4ebc-9270-27bc8739bf26" d="M24,7.19a.34.34,0,0,1-.33-.31A.33.33,0,0,1,24,6.52,132.46,132.46,0,0,1,38,6.4a.32.32,0,0,1,.32.34.33.33,0,0,1-.34.33,131.13,131.13,0,0,0-14,.12Z"/><path class="b1646ed3-2e78-4ebc-9270-27bc8739bf26" d="M31.38,22.17a.33.33,0,0,1-.33-.33L31,17a.33.33,0,0,1,.33-.34h0a.33.33,0,0,1,.33.33l.06,4.87a.32.32,0,0,1-.33.34Z"/><path class="b1646ed3-2e78-4ebc-9270-27bc8739bf26" d="M42.9,22.66h0a.33.33,0,0,1-.3-.36L43,17.54a.34.34,0,1,1,.67.06l-.43,4.76A.33.33,0,0,1,42.9,22.66Z"/><path class="b1646ed3-2e78-4ebc-9270-27bc8739bf26" d="M25.13,17.48a.33.33,0,0,1-.33-.29l-.56-4.57a.34.34,0,1,1,.67-.08l.55,4.57a.34.34,0,0,1-.29.37Z"/><path class="b1646ed3-2e78-4ebc-9270-27bc8739bf26" d="M37.37,17.25h0a.32.32,0,0,1-.33-.34l0-4.52a.34.34,0,1,1,.67,0l0,4.52A.33.33,0,0,1,37.37,17.25Z"/><path class="b1646ed3-2e78-4ebc-9270-27bc8739bf26" d="M49.18,18.65h-.06a.34.34,0,0,1-.27-.39l.84-4.64a.34.34,0,1,1,.66.12l-.84,4.64A.34.34,0,0,1,49.18,18.65Z"/><path class="b1646ed3-2e78-4ebc-9270-27bc8739bf26" d="M43.88,13h0a.34.34,0,0,1-.3-.37l.54-5.54a.34.34,0,0,1,.37-.3.34.34,0,0,1,.3.37l-.54,5.54A.33.33,0,0,1,43.88,13Z"/><path class="b1646ed3-2e78-4ebc-9270-27bc8739bf26" d="M51.07,8.77H51a.33.33,0,0,1-.27-.39l1-6.09a.33.33,0,1,1,.66.11l-1,6.1A.33.33,0,0,1,51.07,8.77Z"/><path class="b1646ed3-2e78-4ebc-9270-27bc8739bf26" d="M20,22.72a.33.33,0,0,1-.33-.27l-.73-4.3-5.52.9a.33.33,0,0,1-.38-.24l-1.27-4.62a.3.3,0,0,1,0-.26.36.36,0,0,1,.22-.16l6-1-1-4.9c-2.13.27-4.19.66-6.3,1.08a.34.34,0,0,1-.39-.23C10,7.62,9.72,6.54,9.42,5.45c-.26-.93-.51-1.86-.77-2.78a.33.33,0,0,1,.24-.41.34.34,0,0,1,.41.23c.25.92.51,1.85.76,2.78l.81,2.94c2.12-.42,4.2-.81,6.35-1.08a.35.35,0,0,1,.37.27l1.17,5.54a.35.35,0,0,1-.06.26.38.38,0,0,1-.21.14l-6,1,1.1,4,5.55-.9a.33.33,0,0,1,.38.28l.79,4.61a.33.33,0,0,1-.27.39Z"/><path class="b1646ed3-2e78-4ebc-9270-27bc8739bf26" d="M56.91,10.54a.22.22,0,0,1-.11,0A49.87,49.87,0,0,0,46.87,8a.34.34,0,0,1-.28-.38A.33.33,0,0,1,47,7.32,50.22,50.22,0,0,1,57,9.89a.34.34,0,0,1,.21.43A.33.33,0,0,1,56.91,10.54Z"/><path class="b1646ed3-2e78-4ebc-9270-27bc8739bf26" d="M8,20.52a.33.33,0,0,1-.1-.65c6.52-2.08,15.42-3.3,24.44-3.33s17.08,1.1,22.31,3.1a.33.33,0,0,1-.24.62c-10.86-4.15-32.93-4-46.31.25Z"/><path class="b1646ed3-2e78-4ebc-9270-27bc8739bf26" d="M6.43,15.89a.32.32,0,0,1-.32-.23.34.34,0,0,1,.21-.42c6.55-2.09,16-3.34,25.81-3.42s18.49,1,23.69,3a.33.33,0,0,1,.19.43.33.33,0,0,1-.43.19c-10.75-4.12-35.51-3.91-49,.43Z"/><path class="b1646ed3-2e78-4ebc-9270-27bc8739bf26" d="M9.41,25.21a.33.33,0,0,1-.24-.1.33.33,0,0,1,0-.47c2.08-2.05,12.26-2.92,20.35-3S48.81,22,53.74,24a.33.33,0,0,1,.19.43.34.34,0,0,1-.44.19c-4-1.57-13.38-2.49-24-2.32-10.33.15-18.32,1.3-19.89,2.85A.33.33,0,0,1,9.41,25.21Z"/><path class="b1646ed3-2e78-4ebc-9270-27bc8739bf26" d="M4.6,10.69a.35.35,0,0,1-.32-.22.34.34,0,0,1,.2-.43A34.08,34.08,0,0,1,10.6,8.29a.34.34,0,1,1,.12.66,33.34,33.34,0,0,0-6,1.72Z"/><path class="a9b770d0-0522-43fa-acf9-7c653d19e072" d="M33,19.56l-.21-.1-.15,0-.27.19-.32.11.26.2-.13.29-.11.29.37,0,.16.35.29.26.13.07.32-.15.32-.05.24-.11.21-.22h.29l.27.06.39,0,.1.15.35,0,.11-.26,0-.34-.26-.06,0-.27.16-.13.26-.18V19.3l0-.29-.14-.16h-.45l-.08-.19v-.29l.16-.13V18l-.11-.16-.31-.08-.42.1-.27-.1-.3-.16-.2-.31L33.47,17l-.06-.29-.31-.29L33,16.21l0-.37.11-.24.2.13.25.11.26.06.26.13-.07.29,0,.26.19,0,.34-.11.26-.09.11-.49L35,15.7l.22-.24.13-.26,0-.34v-.32l-.07-.23-.06-.24L35,13.83l-.31-.21-.06-.19-.1-.16c-.08-.13.07-.31.07-.31l.14-.19,0-.21-.26,0-.16.27-.29.13-.16,0,0-.26.24-.24.22-.16v-.22l-.27,0-.34.26h-.22a1.83,1.83,0,0,1-.36-.21L33,11.88l-.16-.33,0-.31,0-.37.13-.37.24-.11.18.11.14.24.24,0h.19l.18-.13.13.24.16.05.19-.05.18-.27v-.18l.11-.24.2-.06.14-.2V9.63L35,9.47l-.13-.08,0-.24V8.84l-.08-.14-.23,0-.22.07-.1.27L34,9.13l-.24,0-.56.11-.37.37-.16.31-.26.29,0,.27v.55l0,.4.14.43.13.18.2.26.24.18.16.22.19.31,0,.38.2.31.17.22L34,14l.31.33.19.34-.08.45-.18.21a1.49,1.49,0,0,1-.33.06,2.11,2.11,0,0,1-.37-.06l-.42-.38-.42-.44-.34-.31-.24-.4-.32-.48-.21-.42-.11-.45,0-.39,0-.35.16-.24-.13-.32-.08-.37.14-.37,0-.29.21-.18.24-.22.26-.18.35-.15.1-.38-.08-.21V8.55L33,8.38l.11-.13,0-.27L33,7.75,33,7.3l0-.36v-.4l-.08-.24-.2-.11-.31-.13-.07-.18a.46.46,0,0,1-.08-.24c0-.13.08-.29,0-.45s-.13-.37-.13-.37l-.14-.19h-.42l-.18.19-.39-.06-.49,0h-.37v.83l.1,0v.22l-.1-.09V15.86l.13,0h.2l-.09.26-.05.24v.16l.16.26.13.22v.18l0,.24.08.31.13.22.24.24.31.2h.35l.34,0,.45.07.45,0,.24.27.13.16.27.23.15.22v.37l-.18,0H33.3l-.13-.05L33,19.56ZM30.08,4.16l.13,0,.51-.07h.22l.42,0,.55,0,.41,0h2.24l.28,0,.39,0,.4.09.32.11.29.11.24.06.34-.4.27-.34.21-.28.15-.18-.22-.13L36.92,3l-.45-.12-.68-.1-.69,0-.75,0-.68,0L33,2.81l-.47.06L31.81,3l-.67.14-.57.16-.49.13Zm0,.64h0L29.59,5l-.33.24-.39.27-.24.24h-.3l-.11.34.32.1v.27l.3.13.32-.07.26-.06.26-.05.17.05.16.16V6.9l-.08.24-.27.13-.34.11v.24l-.13.21L29,8l-.44.11-.19.11-.13.11L28,8.38l-.35-.07-.13-.2-.26-.18-.05-.15-.29-.18-.22-.13-.13-.33-.11-.4-.18-.47.18-.21.2-.09a.77.77,0,0,1-.22-.31l.08-.18.34-.19L27.38,5l.39-.17.4-.18.34-.13.37-.13.31-.09.45-.11L30,4.17h0V3.45h0l-.61.19-.85.27L28,4.13l-.67.27-.45.23-.34.21L26.16,5,26,5s.29-.35.13-.4a.63.63,0,0,0-.35,0l0,.27-.1.21-.18.16-.27.18-.4,0-.1.13-.16.18,0,.4.39.13.23.11.17.09v.33l-.06.37v.13l.13.4.19.34.29.35.34.39L26.5,9l.32.32.21.23L27,9.76l-.27.27-.15.29v.52l.15.27.11.47.32.19-.25.24-.2.29-.35.29-.23.11-.5,0-.13.22v.31l-.16.09-.06.4.16.2.19-.18.05.16-.08.28.18.16.16-.11.08-.13.16.17.09.34.33-.11.05-.18.19-.27L27,14l.22-.18.2-.22.08-.2.18-.19.22-.21.13-.11.16,0,.29,0L29,13l.31.13.06.16V14l-.19.1h-.4l-.38-.05-.66.05-.31.11-.32.21-.24.29-.21.24-.05.32-.11.24-.11.35.06.42.31.26.05.31,0,.29s.24.13-.07.29-.33.19-.33.19l-.23.08-.39,0h-.4l-.4-.05-.39,0-.38.17L24,18l.18.18.24,0-.24.09c0,.14.16.22.16.22l-.16.07.09.2.37.1-.3.16,0,.18.32.09H25l.56,0,.5-.24.27-.24.26-.07h.27l.42.18.13.19.4.1.39.08.2-.11.18-.4.19-.2,0-.33.08-.42-.21-.28-.06-.32.13-.26.06-.17.05-.26v-.19l-.15-.31.2.07.27.09h.21l.24-.13.29-.18.18,0V5.73L30,5.64h.08Z"/><path class="beb359ee-924c-4eeb-9358-a6c65f0fea3c" d="M33,21.47a.27.27,0,0,1-.12,0l-.13-.07,0,0-.29-.27a.16.16,0,0,1-.06-.08l-.08-.19h-.2a.23.23,0,0,1-.22-.1.26.26,0,0,1,0-.24l.1-.28v0l.05-.11L31.91,20a.26.26,0,0,1,.08-.44l.28-.09.24-.17a.22.22,0,0,1,.11-.05l.15,0a.29.29,0,0,1,.16,0l.2.11h0l.15.08.07,0h0v-.07l-.09-.13L33.07,19l0,0-.13-.16-.17-.18-.34,0h0L32,18.58l-.3,0h-.39a.2.2,0,0,1-.13,0l-.32-.2,0,0-.24-.24,0-.05-.14-.22,0-.07-.07-.31a.2.2,0,0,1,0-.11l0-.22v-.08l-.25-.43a.25.25,0,0,1,0-.12v-.16s0,0,0-.05l0-.17H30l-.24.16-.26.14a.24.24,0,0,1-.12,0h-.28v.14l-.05.26s0,0,0,0l-.06.17v0l-.1.19,0,.17.17.25a.21.21,0,0,1,0,.19l-.07.42,0,.31a.27.27,0,0,1-.07.14l-.16.18-.17.35a.23.23,0,0,1-.1.12l-.19.11a.23.23,0,0,1-.18,0l-.4-.08-.4-.1a.25.25,0,0,1-.15-.1l-.09-.13L26.8,19h-.18l-.18,0-.22.2-.06.05-.5.24-.13,0-.54,0h-.35l-.31-.09a.25.25,0,0,1-.18-.19l0-.18a.29.29,0,0,1,0-.13.16.16,0,0,1-.06-.08l-.09-.2a.22.22,0,0,1,0-.21.34.34,0,0,1,0-.2l-.11-.11a.27.27,0,0,1,0-.33l.13-.18a.39.39,0,0,1,.1-.08l.37-.16a.31.31,0,0,1,.13,0l.4,0,.38.05h.42l.34,0,.12,0,.29-.17a.37.37,0,0,1,0-.11l0-.26,0-.19-.24-.2a.26.26,0,0,1-.09-.16l-.06-.42a.41.41,0,0,1,0-.11l.11-.35v0l.1-.21,0-.27a.29.29,0,0,1,0-.1l-.07,0a.21.21,0,0,1-.2,0,.26.26,0,0,1-.12-.15l0-.16-.05,0a.27.27,0,0,1-.31,0l-.18-.16a.27.27,0,0,1-.09-.21.31.31,0,0,1-.11-.09l-.16-.2a.27.27,0,0,1,0-.19l.06-.4a.24.24,0,0,1,.13-.18l0,0V13a.31.31,0,0,1,0-.13l.13-.22a.27.27,0,0,1,.19-.11l.47-.05.16-.07.3-.25.18-.26,0,0h0l0,0a.21.21,0,0,1-.11-.16l-.1-.43L26.34,11a.28.28,0,0,1,0-.13v-.52a.21.21,0,0,1,0-.12l.15-.29.05-.06.21-.21-.11-.13-.3-.3L26.06,9l0,0-.63-.74a.08.08,0,0,1,0,0l-.2-.34,0,0L25,7.41a.19.19,0,0,1,0-.08V7.16l.06-.35V6.65l0,0-.2-.1-.38-.13a.24.24,0,0,1-.17-.25l0-.4a.2.2,0,0,1,.06-.14l.26-.31a.22.22,0,0,1,.17-.09l.33,0,.2-.14.13-.11.07-.14.05-.23a.23.23,0,0,1,.15-.19.84.84,0,0,1,.51,0,.3.3,0,0,1,.21.21.07.07,0,0,1,0,0l.29-.18,0,0,.44-.22h0l.68-.27.58-.22L30,3.22l1.11-.3,1.4-.29h0L33,2.56l.68-.06.7,0h.77l.7,0h0l.67.1h0l.46.12h0l.3.12,0,0,.23.13a.26.26,0,0,1,.12.18.24.24,0,0,1-.06.2l-.15.18-.2.26L37,4.17l-.34.4a.22.22,0,0,1-.25.08l-.24-.06h0l-.29-.11-.3-.1-.38-.1-.64-.08H32.32l-.4,0-1.18.1-.48.07-.16,0h0l-.38.06-.44.1-.67.21-.32.13-.38.18-.41.17L27,5.51l-.25.15a.58.58,0,0,0,.11.13.24.24,0,0,1,.07.23.24.24,0,0,1-.14.18l-.14.06-.05.06.13.33v0l.1.38.1.23.43.28a.28.28,0,0,1,.11.13l0,.08.19.13.07.06.07.11.19,0,.09,0,.1-.08,0,0,.19-.11.06,0,.39-.1.14-.1.06-.1V7.38a.26.26,0,0,1,.18-.24l.32-.1L29.72,7l0-.1V6.74l0,0h0l-.2,0-.57.13a.3.3,0,0,1-.16,0l-.3-.13a.25.25,0,0,1-.15-.23V6.4l-.15-.06A.25.25,0,0,1,28,6l.11-.34a.25.25,0,0,1,.24-.17h.19l.17-.17,0,0,.39-.26.32-.24,0,0,.45-.23a.2.2,0,0,1,.11,0h.42l.47,0h0l.27,0,.09-.09a.25.25,0,0,1,.18-.08h.42a.25.25,0,0,1,.21.11l.13.19a.16.16,0,0,1,0,.07s0,.18.11.34a.64.64,0,0,1,0,.46s0,.07,0,.09a.24.24,0,0,0,0,.09l0,.06,0,.08.21.09h0l.21.11a.28.28,0,0,1,.12.14l.08.24a.19.19,0,0,1,0,.08v.4l0,.33.06.42.08.21a.2.2,0,0,1,0,.11l0,.26a.2.2,0,0,1-.06.14l-.1.13-.07.06L33,8.69v.05l.06.17a.26.26,0,0,1,0,.15l0,.08.06-.06A.29.29,0,0,1,33.18,9l.56-.11h0l.19,0,.06,0,.07-.18a.29.29,0,0,1,.16-.15l.21-.07h.11l.23,0a.23.23,0,0,1,.18.11l.09.13a.32.32,0,0,1,0,.14v.42h0l.21.16a.26.26,0,0,1,.1.2v.29a.28.28,0,0,1,0,.13l-.14.21a.21.21,0,0,1-.14.1l-.09,0,0,.09v.12a.28.28,0,0,1,0,.15l-.18.26a.25.25,0,0,1-.15.1l-.19.05h-.13l-.16-.05A.29.29,0,0,1,34,11l-.09,0h-.22l-.24,0a.26.26,0,0,1-.19-.13l-.11-.19h0L33,10.9l0,.33,0,.25.11.25.2.19.25.15h.08l.28-.21a.23.23,0,0,1,.18,0l.26,0a.26.26,0,0,1,.23.25v.25h.06a.25.25,0,0,1,.22.06.25.25,0,0,1,.08.21l0,.21a.15.15,0,0,1,0,.11l-.13.19,0,0,0,0,.08.13,0,.06,0,.1.24.16.06.06.18.24a.13.13,0,0,1,0,.09l.06.24.07.21a.22.22,0,0,1,0,.08v.31l0,.32a.32.32,0,0,1,0,.14l-.13.26a.13.13,0,0,1,0,.06l-.2.22-.1.16-.1.46a.24.24,0,0,1-.16.18l-.6.19a.14.14,0,0,1-.11,0l-.19,0a.23.23,0,0,1-.17-.1.24.24,0,0,1-.05-.18l0-.27v0l0-.1-.06,0-.23-.05-.05,0L33.25,16v.18l.06.15.26.24a.29.29,0,0,1,.08.14l.05.24.3.46.23.12.18.07.34-.09h.13l.31.09a.23.23,0,0,1,.14.1l.11.15a.28.28,0,0,1,0,.15v.26a.25.25,0,0,1-.09.19l-.06.06v.11h.27a.25.25,0,0,1,.19.09l.14.16A.18.18,0,0,1,36,19l0,.29v.41a.28.28,0,0,1-.1.21l-.26.18h0a.24.24,0,0,1,.19.26l0,.33a.19.19,0,0,1,0,.08l-.11.27a.26.26,0,0,1-.21.15l-.35,0a.24.24,0,0,1-.23-.11l0-.05-.27,0h0l-.23-.06h-.16l-.14.15-.08.05-.24.11-.06,0-.28,0-.29.14A.22.22,0,0,1,33,21.47Zm-.21-.73.22.2.21-.1.07,0,.28,0,.16-.08.19-.18a.23.23,0,0,1,.17-.08h.35l.24.06.38,0a.24.24,0,0,1,.2.12v0h0l0-.08v-.08l-.06,0a.25.25,0,0,1-.19-.22l0-.26a.31.31,0,0,1,.09-.22l.16-.13h0l.15-.11v-.22l0-.2v0h-.34a.25.25,0,0,1-.24-.16l-.07-.19a.29.29,0,0,1,0-.09v-.29a.28.28,0,0,1,.09-.19l.07-.06v-.07h0L34.82,18l-.36.1a.29.29,0,0,1-.16,0L34,18h0l-.3-.16a.39.39,0,0,1-.1-.08l-.36-.56a.19.19,0,0,1,0-.08l0-.21-.25-.24a.26.26,0,0,1-.07-.1l-.08-.24a.15.15,0,0,1,0-.07l0-.37a.5.5,0,0,1,0-.12l.11-.24a.32.32,0,0,1,.16-.14.3.3,0,0,1,.21,0l.16.11L33,15.12h0l-.42-.45-.33-.3,0,0-.24-.4-.32-.47,0,0L31.4,13l0-.05-.11-.45s0,0,0,0l0-.4v0l0-.35a.56.56,0,0,1,0-.12l.09-.13-.08-.19a.08.08,0,0,1,0-.05l-.07-.37a.19.19,0,0,1,0-.13l.12-.35,0-.25a.26.26,0,0,1,.09-.17l.44-.39,0,0,.27-.19,0,0,.24-.1,0-.19,0-.14a.31.31,0,0,1,0-.08V8.55a.26.26,0,0,1,.13-.22l.25-.14,0,0V8l-.07-.18a.11.11,0,0,0,0,0l-.07-.45v0l0-.36V6.58l0-.11-.11,0-.3-.13a.29.29,0,0,1-.13-.14L32.06,6A.69.69,0,0,1,32,5.64a.9.9,0,0,1,0-.18.27.27,0,0,0,0-.15v0a2.78,2.78,0,0,1-.13-.36l0,0h-.18l-.1.11a.27.27,0,0,1-.23.08L30.93,5l-.46,0h-.38l-.37.19-.31.23L29,5.72,28.8,6a.24.24,0,0,1-.11.06.26.26,0,0,1,.1.2v.11l.08,0,.49-.11.28-.06h.11l.17,0A.24.24,0,0,1,30,6.3l.16.16a.29.29,0,0,1,.07.18V6.9a.19.19,0,0,1,0,.08l-.09.24a.19.19,0,0,1-.12.14l-.27.14h0l-.17,0v.06a.23.23,0,0,1,0,.14L29.4,8s0,0-.06.07l-.22.16-.08,0-.4.1-.15.08-.11.09-.08,0-.2.08a.33.33,0,0,1-.14,0l-.35-.07a.23.23,0,0,1-.15-.1l-.11-.15-.22-.16A.21.21,0,0,1,27,8l0-.07-.43-.26a.29.29,0,0,1-.1-.12l-.13-.32v0l-.1-.39-.18-.46a.25.25,0,0,1,0-.25l.18-.21h0a.5.5,0,0,1-.07-.15.27.27,0,0,1,0-.18l.09-.18a.23.23,0,0,1,.1-.12l.34-.19.51-.26.41-.17.4-.18.34-.14.71-.22L29.58,4h0L30,3.92l.17,0h0l.5-.07h.24l1-.09.41,0h2.29l.67.08h0l.39.1h0L36,4l.28.11.08,0,.24-.28.27-.34.16-.23-.21-.09-.43-.11L35.77,3l-.68,0-.74,0-.67,0L33,3.06l-.45.06-1.37.29L30.1,3.7l-1.46.46-.56.21-.66.26L27,4.84l-.33.21,0,0-.37.18a.25.25,0,0,1-.19,0l-.14,0-.05,0v0s0,0-.06.07l-.18.16,0,0-.27.18a.21.21,0,0,1-.12,0l-.29,0-.15.17V6l.21.07h0l.23.11h0l.16.1a.23.23,0,0,1,.13.21v.37l-.06.35v.07l.11.34.17.29.59.71.26.18,0,0,.33.32.21.24a.25.25,0,0,1,.06.23l-.05.19a.23.23,0,0,1-.06.12l-.24.24-.11.2v.4l.12.2,0,.07.08.37.23.14a.23.23,0,0,1,.11.18.24.24,0,0,1-.07.21l-.22.22-.2.27a.1.1,0,0,1,0,.05l-.35.29a.1.1,0,0,1-.05,0l-.23.1-.08,0-.38,0,0,0v.24a.23.23,0,0,1-.14.22l0,0v0h.12a.24.24,0,0,1,.18.17l0,.15a.09.09,0,0,0,0,.05l.07,0a.24.24,0,0,1,.21.08l.15.17a.24.24,0,0,1,.06.11h0l0,0,.19-.27,0,0,.36-.3.17-.18.06-.16a.18.18,0,0,1,.05-.07l.18-.2.23-.21h0l.13-.11a.21.21,0,0,1,.12-.05l.16,0,.3,0,.13,0,.8.35a.32.32,0,0,1,.14.14l.06.16a.28.28,0,0,1,0,.09V14a.25.25,0,0,1-.13.23l-.2.09a.2.2,0,0,1-.11,0H28.7l-.36-.05-.6.05-.25.08-.26.18-.21.26-.18.2,0,.23a.64.64,0,0,1,0,.07l-.11.23-.08.28,0,.27.24.2a.28.28,0,0,1,.08.15l.05.32v.22a.36.36,0,0,1,.08.23.48.48,0,0,1-.3.39,2.53,2.53,0,0,0-.26.14.21.21,0,0,1-.1.06l-.23.07a.14.14,0,0,1-.11,0l-.38,0h-.41l-.4-.05-.32,0-.13.06h0a.25.25,0,0,1,.21.22.26.26,0,0,1-.11.24.19.19,0,0,1,0,.1.2.2,0,0,1,0,.09l.14,0a.26.26,0,0,1,.18.22.26.26,0,0,1-.07.19H25l.51,0,.41-.2.24-.22.1-.05.27-.08h.33a.2.2,0,0,1,.1,0l.42.18a.2.2,0,0,1,.1.08l.08.12.31.07.29.06,0,0,.15-.32,0-.07.14-.14,0-.24.05-.34-.14-.2a.18.18,0,0,1,0-.1l-.06-.31a.23.23,0,0,1,0-.16l.12-.25.05-.14,0-.22v-.1l-.13-.26a.24.24,0,0,1,0-.27.23.23,0,0,1,.27-.07l.42.14h.12l.18-.1.28-.18.08,0,.32-.06h.24a.23.23,0,0,1,.2.1.25.25,0,0,1,0,.22l-.08.25-.05.21v.06l.26.42a.28.28,0,0,1,0,.13v.23l0,.19.05.22.1.15.2.2.23.15h.25l.32,0H32l.44.07.43,0a.25.25,0,0,1,.18.08l.24.27h0l.11.15.25.21,0,.05.16.21a.28.28,0,0,1,0,.15v.37a.25.25,0,0,1-.21.25l-.18,0H33.3l-.08,0-.13-.05h0l-.28-.15h0l-.2.15a.24.24,0,0,1,0,.22l-.09.2a.25.25,0,0,1,.22.15Zm-6.24-3Zm0,0v0Zm0,0Zm0,0Zm0,0Zm0,0Zm7-2.06.24.05.05,0,.27.13a.26.26,0,0,1,.13.29l-.06.22.29-.09.07-.35,0-.08.14-.22,0,0,.2-.22.08-.17,0-.26v-.31l-.06-.2,0-.2L34.82,14l-.26-.17a.25.25,0,0,1-.11-.14l-.05-.16-.08-.13a.47.47,0,0,1-.07-.22l-.1.05a.25.25,0,0,1-.17,0l-.16-.05-.09,0v.17l.17.25.11.15.08,0a.41.41,0,0,1,.11.07l.31.32,0,0,.19.34a.25.25,0,0,1,0,.17l-.09.46a.17.17,0,0,1-.06.12l-.18.2a.23.23,0,0,1-.11.08,1.72,1.72,0,0,1-.4.07,3.32,3.32,0,0,1-.41-.06Zm.06-.52.25,0,.19,0,.08-.1.06-.3-.13-.23-.25-.26-.09,0a.22.22,0,0,1-.13-.08l-.17-.22h0l-.2-.32a.16.16,0,0,1,0-.12l0-.31-.16-.25-.13-.18-.21-.16,0,0L32.35,12a.3.3,0,0,1,0-.08l-.13-.43s0,0,0-.06l0-.4v-.61l0-.26a.31.31,0,0,1,.06-.13l.24-.26,0-.1-.09,0-.23.16-.36.32v.19s0,0,0,.06l-.11.31.06.28.12.29a.26.26,0,0,1,0,.23l-.12.19,0,.27,0,.35.1.4.18.38.32.47.23.38.31.29.42.44Zm-6-1.58-.07.16a.18.18,0,0,1-.05.07l-.2.22,0,0,0,0,.29-.1h.06l.66-.05h.05l.37.05h.32v-.56l-.65-.28-.3,0-.07.06-.21.2Zm7-.36Zm-1.27-.59v0l.17.27,0-.21a.24.24,0,0,1,0-.08h-.25Zm.58-2.17h.05a.25.25,0,0,1,.17.13l.08.15h0l.08-.12v-.11a.36.36,0,0,1,0-.1l.11-.24a.25.25,0,0,1,.16-.14l.11,0,0-.07V9.75l-.1-.07-.12-.08a.25.25,0,0,1-.12-.24l0-.22v-.2h0L34.5,9l-.06.16a.29.29,0,0,1-.1.12l-.19.11a.17.17,0,0,1-.1,0l-.23,0-.46.09-.29.29-.14.28,0,0-.22.24v0a.18.18,0,0,1,.11-.1l.24-.11a.26.26,0,0,1,.23,0l.18.11a.22.22,0,0,1,.09.1l.07.12h.2l.11-.08A.23.23,0,0,1,34.05,10.38ZM30.18,6.07A.29.29,0,0,1,30,6l-.18-.19a.23.23,0,0,1-.06-.25A.25.25,0,0,1,30,5.39l.18,0a.23.23,0,0,1,.21,0,.28.28,0,0,1,.09.19v.22a.25.25,0,0,1-.16.23Z"/></svg>