<svg id="Component_1_1" data-name="Component 1 – 1" xmlns="http://www.w3.org/2000/svg" width="52" height="52" viewBox="0 0 52 52">
  <path id="Union_26" data-name="Union 26" d="M-5334.889-4687.064a15.914,15.914,0,0,1-5.052,2.925,17.872,17.872,0,0,1-6.142,1.047,17.98,17.98,0,0,1-13.224-5.416,17.823,17.823,0,0,1-5.411-13.072,17.817,17.817,0,0,1,5.417-13.073,17.854,17.854,0,0,1,13.109-5.416,17.737,17.737,0,0,1,13.072,5.416,17.889,17.889,0,0,1,5.38,13.083,17.965,17.965,0,0,1-1.012,5.984,18.318,18.318,0,0,1-3.033,5.417l19.066,18.921-3.176,3.178Zm-21.345-24.519a13.645,13.645,0,0,0-4.149,10,13.641,13.641,0,0,0,4.149,10,13.72,13.72,0,0,0,10.079,4.154,13.508,13.508,0,0,0,9.976-4.154,13.711,13.711,0,0,0,4.107-10,13.715,13.715,0,0,0-4.107-10,13.507,13.507,0,0,0-9.976-4.152A13.718,13.718,0,0,0-5356.234-4711.583Zm3.395,19.417a2.537,2.537,0,0,1-2.537-2.536,2.536,2.536,0,0,1,2.537-2.537h12.684a2.536,2.536,0,0,1,2.537,2.537,2.536,2.536,0,0,1-2.537,2.536Zm-1.524-2.536a1.524,1.524,0,0,0,1.524,1.522h12.684a1.524,1.524,0,0,0,1.523-1.522,1.525,1.525,0,0,0-1.523-1.525h-12.684A1.526,1.526,0,0,0-5354.364-4694.7Zm1.524-3.806a2.536,2.536,0,0,1-2.537-2.536,2.536,2.536,0,0,1,2.537-2.537h12.684a2.536,2.536,0,0,1,2.537,2.537,2.536,2.536,0,0,1-2.537,2.536Zm-1.524-2.536a1.525,1.525,0,0,0,1.524,1.523h12.684a1.524,1.524,0,0,0,1.523-1.523,1.525,1.525,0,0,0-1.523-1.524h-12.684A1.525,1.525,0,0,0-5354.364-4701.044Zm1.524-3.806a2.536,2.536,0,0,1-2.537-2.535,2.537,2.537,0,0,1,2.537-2.538h12.684a2.537,2.537,0,0,1,2.537,2.538,2.536,2.536,0,0,1-2.537,2.535Zm-1.524-2.535a1.525,1.525,0,0,0,1.524,1.522h12.684a1.524,1.524,0,0,0,1.523-1.522,1.524,1.524,0,0,0-1.523-1.524h-12.684A1.525,1.525,0,0,0-5354.364-4707.385Z" transform="translate(5364.718 4720.069)" fill="#3ad1e8"/>
</svg>
