<svg id="link_FILL0_wght400_GRAD0_opsz48" xmlns="http://www.w3.org/2000/svg" width="63.878" height="63.878" viewBox="0 0 63.878 63.878">
  <path id="link_FILL0_wght400_GRAD0_opsz48-2" data-name="link_FILL0_wght400_GRAD0_opsz48" d="M27.854,30.112h-12.8A14.511,14.511,0,0,1,4.4,25.708,14.511,14.511,0,0,1,0,15.056,14.511,14.511,0,0,1,4.4,4.4,14.511,14.511,0,0,1,15.056,0h12.8V4.517h-12.8A10.173,10.173,0,0,0,7.591,7.586a10.138,10.138,0,0,0-3.074,7.453,10.2,10.2,0,0,0,3.074,7.47A10.143,10.143,0,0,0,15.056,25.6h12.8Zm-9.41-12.8V12.8H41.781v4.517Zm13.927,12.8V25.6h12.8a10.172,10.172,0,0,0,7.465-3.069,10.138,10.138,0,0,0,3.074-7.453A10.2,10.2,0,0,0,52.634,7.6a10.143,10.143,0,0,0-7.465-3.086h-12.8V0h12.8A14.511,14.511,0,0,1,55.821,4.4a14.511,14.511,0,0,1,4.4,10.652,14.511,14.511,0,0,1-4.4,10.652,14.511,14.511,0,0,1-10.652,4.4Z" transform="translate(0 42.585) rotate(-45)" fill="#3ad1e8"/>
</svg>
