<svg id="Component_6_1" data-name="Component 6 – 1" xmlns="http://www.w3.org/2000/svg" width="44.926" height="52.049" viewBox="0 0 44.926 52.049">
  <path id="Union_37" data-name="Union 37" d="M-13535.432-3992.952H-13580V-4045h44.926v52.049Zm-2.642-1.268h1.749v-49.513h-1.749Zm-3,0h1.749v-49.513h-1.749Zm-3,0h1.751v-49.513h-1.751Zm-34.675,0h33.427v-49.513h-33.427Zm15.326-14.713-10.1-15.841a1.96,1.96,0,0,1-.068-2.035,1.973,1.973,0,0,1,1.756-1.04h20.2a1.967,1.967,0,0,1,1.752,1.04,1.975,1.975,0,0,1-.065,2.035l-10.1,15.841a1.991,1.991,0,0,1-1.687.927A1.989,1.989,0,0,1-13563.423-4008.933Zm.437-5.647a1.342,1.342,0,0,0,1.329,1.35,1.345,1.345,0,0,0,1.333-1.35,1.343,1.343,0,0,0-1.333-1.35A1.34,1.34,0,0,0-13562.986-4014.58Zm.385-2.137h1.793l.484-8.21h-2.662Z" transform="translate(13580 4045.001)" fill="#3ad1e8"/>
</svg>
